<?xml version="1.0" encoding="UTF-8" standalone="no"?>
<!-- Created with Inkscape (http://www.inkscape.org/) -->

<svg
   xmlns:dc="http://purl.org/dc/elements/1.1/"
   xmlns:cc="http://creativecommons.org/ns#"
   xmlns:rdf="http://www.w3.org/1999/02/22-rdf-syntax-ns#"
   xmlns:svg="http://www.w3.org/2000/svg"
   xmlns="http://www.w3.org/2000/svg"
   xmlns:sodipodi="http://sodipodi.sourceforge.net/DTD/sodipodi-0.dtd"
   xmlns:inkscape="http://www.inkscape.org/namespaces/inkscape"
   id="svg2405"
   sodipodi:version="0.32"
   inkscape:version="0.91 r13725"
   width="500"
   height="500"
   sodipodi:docname="0.svg"
   version="1.0">
  <metadata
     id="metadata2410">
    <rdf:RDF>
      <cc:Work
         rdf:about="">
        <dc:format>image/svg+xml</dc:format>
        <dc:type
           rdf:resource="http://purl.org/dc/dcmitype/StillImage" />
        <dc:title></dc:title>
      </cc:Work>
    </rdf:RDF>
  </metadata>
  <defs
     id="defs2408" />
  <sodipodi:namedview
     inkscape:window-height="1017"
     inkscape:window-width="1920"
     inkscape:pageshadow="2"
     inkscape:pageopacity="0.0"
     borderopacity="1.0"
     bordercolor="#666666"
     pagecolor="#ffffff"
     id="base"
     inkscape:zoom="1.3553531"
     inkscape:cx="309.40867"
     inkscape:cy="258.08972"
     inkscape:window-x="-8"
     inkscape:window-y="-8"
     inkscape:current-layer="layer4"
     showgrid="false"
     showguides="true"
     inkscape:guide-bbox="true"
     units="px"
     inkscape:window-maximized="1">
    <sodipodi:guide
       position="249.38151,366.69412"
       orientation="1,0"
       id="guide3337" />
    <sodipodi:guide
       position="264.13782,250.11933"
       orientation="0,1"
       id="guide3339" />
  </sodipodi:namedview>
  <g
     inkscape:groupmode="layer"
     id="layer4"
     inkscape:label="Vector"
     transform="translate(0,-552.36219)">
    <path
       style="opacity:1;fill:#000000;fill-opacity:1;fill-rule:evenodd;stroke:none;stroke-width:1px;stroke-linecap:butt;stroke-linejoin:miter;stroke-opacity:1"
       d="m 70.929221,584.88414 c -0.0019,0.002 -0.01929,0.0172 -0.02148,0.0195 -3.339346,0.66787 -12.702223,58.76617 -6.691406,75.46289 2.703131,7.50868 8.522174,13.93272 14.097656,18.73437 -25.988198,46.61429 -9.583793,85.84501 11.287109,102.15039 21.3718,16.69674 38.07027,36.05417 24.71289,58.76172 -13.35736,22.70752 -26.393031,8.90512 -29.390624,25.38477 -2.909021,15.9927 28.095654,45.93833 42.755864,44.75 15.3479,-1.24405 4.66216,-30.73232 18.01953,-30.06446 l 50.77148,139.59768 30.71289,-4.6777 -39.88086,-123.98834 c 43.53924,4.41018 50.52125,-7.48722 68.70703,-8.3496 23.6051,-1.11936 37.77169,8.49644 63.27344,6.60742 25.50174,-1.88903 29.29408,-8.49276 60.46289,-16.04883 31.16883,-7.55608 35.89166,4.72139 46.28125,0.94336 10.3896,-3.77804 15.93618,-17.32486 1.88672,-53.85352 -14.16763,-36.83585 -24.06174,-43.96318 -35.89453,-71.76953 -14.39037,-33.81647 -2.05985,-48.54449 -17.01563,-84.06445 -12.25139,-29.0971 -19.521,-35.24744 -24.85937,-35.01563 -0.004,1.7e-4 -0.0173,10e-6 -0.0215,0 -0.008,-2.8e-4 -0.0318,3.5e-4 -0.041,0 -0.004,-1e-4 -0.0172,-5e-5 -0.0215,0 -0.002,1.3e-4 -0.0173,10e-5 -0.0215,0 -0.002,-4e-5 -0.0175,9e-5 -0.0195,0 -0.002,-4e-5 -0.0194,1.3e-4 -0.0215,0 2.1e-4,10e-4 7e-5,0.0169 0,0.0215 -0.002,-1.3e-4 -0.0197,3e-5 -0.0215,0 -0.004,-1.2e-4 -0.0196,-1.5e-4 -0.0215,0 -1.17316,0.0843 -2.25319,0.47718 -3.27149,0.98633 -5.66705,2.83353 -23.60888,15.12465 -52.88867,17.01367 -29.27979,1.88902 -50.06477,-7.57572 -80.28906,-4.74219 -30.2243,2.83352 -34.01513,19.84502 -63.29492,23.62305 -15.00993,1.93676 -26.04132,0.90865 -33.23047,-0.56641 2.84375,-9.32168 4.72401,-15.22092 2.01367,-24.125 -3.18975,-10.47901 -44.420524,-57.08724 -48.04297,-56.79101 -0.0024,-1e-4 -0.01957,0 -0.02148,0 z m 12.671875,36.73437 c 10.685899,7.34656 21.367484,20.04983 23.371104,26.72852 2.00359,6.67868 -4.00646,20.02373 -8.013685,22.02734 -4.007209,2.00361 -18.711433,-2.67132 -22.050778,-12.02148 -3.339346,-9.35017 0.682534,-17.36618 6.693359,-36.73438 z m 259.302744,29.05664 0.002,0 c 0.002,4e-5 0.0192,-2.3e-4 0.0215,0 0.002,3e-5 0.0173,-2.3e-4 0.0195,0 0.002,2e-5 0.0194,-2.1e-4 0.0215,0 0.002,2e-5 0.0196,-1.8e-4 0.0215,0 0.002,-2e-4 0.0198,-2e-5 0.0215,0 0.002,8e-5 0.0177,8e-5 0.0195,0 0.007,5e-5 0.0359,-1.5e-4 0.043,0 0.004,8e-5 0.0178,9e-5 0.0195,0 0.003,0 0.018,-1.5e-4 0.0215,0 0.0105,5.9e-4 0.0326,2.3e-4 0.043,0 0.002,-2.3e-4 0.0154,-9e-5 0.0195,0 0.0174,-1.5e-4 0.0452,-4.2e-4 0.0625,0 0.004,10e-6 0.0171,1.3e-4 0.0215,0 2.94729,-0.0887 5.85727,0.9422 8.28711,2.5586 7.83855,6.20357 8.31074,18.05136 4.8457,26.72851 -7.18127,13.69089 -20.88933,22.19773 -30.48242,34.07031 -4.08841,4.94873 -7.64993,12.47011 -14.83203,12.96485 -5.13167,-0.62035 -4.70194,-7.31644 -3.46289,-10.95117 6.2016,-17.19045 13.42775,-34.23779 20.8125,-51.02149 2.52083,-6.3645 6.60561,-14.04231 14.39257,-14.30859 0.002,5e-5 0.0178,0 0.0195,0 0.002,7e-5 0.0197,0 0.0215,0 0.002,8e-5 0.0196,-1e-5 0.0215,0 0.003,-0.007 0.016,-0.0335 0.0195,-0.041 z m -212.62305,32.07813 c 0.0109,-1.5e-4 0.0331,-6e-5 0.041,0 0.0254,6.7e-4 0.0557,0.002 0.084,0 0.0459,-0.003 0.10027,0.003 0.14648,0 0.0466,-0.003 0.0994,0.003 0.14649,0 0.0474,-0.003 0.10068,0.002 0.14844,0 0.0482,-0.002 0.0979,0.002 0.14648,0 0.0987,-0.004 0.19259,0.003 0.29297,0 3.42378,-0.0846 7.81427,0.68131 12.65039,1.61523 13.83371,2.67148 11.94932,13.16979 32.72851,24.50391 20.7792,11.3341 42.50689,14.15531 36.83985,24.54492 -5.66707,10.3896 -23.20203,0.44652 -50.05664,-7.55274 -17.53732,-5.22389 -32.23292,-13.93533 -37.78516,-29.26562 -3.61288,-9.97552 -1.10895,-13.37905 4.61719,-13.8457 z m -18.63086,8.32812 55.42773,171.65235 -16.02734,6 -56.771489,-171.63086 17.371099,-6.02149 z m -26.056646,14.03516 23.371096,72.12695 C 84.253217,761.88253 70.23229,746.52443 85.593284,705.11656 Z m 171.654306,7.00781 c 9.35017,16.69673 41.74058,25.38325 44.07812,41.41211 2.33754,16.02886 -14.69295,21.69727 -12.02148,34.7207 2.67148,13.02345 4.33535,6.75255 6.66992,17.70703 4.34115,20.37001 -36.07051,27.04935 -37.40625,4.3418 -0.82775,-13.86474 8.69495,-14.02093 6.35742,-23.37109 -2.33755,-9.35017 -30.73298,-14.71093 -34.40625,-27.73438 -3.67328,-13.02344 14.03901,-31.38125 26.72852,-47.07617 z m 57.02148,74.53906 c 0.003,-1.5e-4 0.019,-4e-5 0.0215,0 0.0109,1.7e-4 0.0349,2.7e-4 0.041,0 0.003,-1.3e-4 0.019,-4e-5 0.0215,0 0.007,5.2e-4 0.0328,3e-4 0.041,0 0.003,-1.2e-4 0.019,-3e-5 0.0215,0 0.007,4.5e-4 0.0327,2.5e-4 0.041,0 0.003,-1.1e-4 0.019,-2e-5 0.0215,0 0.007,3.7e-4 0.0347,1.9e-4 0.043,0 0.0749,-0.005 0.15481,0.001 0.23047,0 0.18678,-0.003 0.35487,0.0182 0.54492,0.041 10.47913,0.044 20.49335,4.42159 30.44141,7.34375 14.48772,5.43053 29.68398,8.70298 43.76367,15.04101 12.44754,5.56085 25.35481,15.31447 26.83203,29.91797 -0.0152,4.25327 1.78854,10.14503 -1.92968,13.36328 -3.87625,1.67058 -8.62068,1.05492 -12.60938,0.041 -11.19881,-5.55296 -19.84699,-15.11836 -29.72852,-22.65625 -10.95751,-9.76988 -24.05359,-16.42701 -37.30078,-22.49024 -7.94393,-4.33527 -17.25769,-7.29263 -23.41211,-14.07812 -2.32976,-2.503 -0.0672,-6.09999 2.91602,-6.52344 z m -79.6582,3.10547 c 0.0539,-0.004 0.11498,0.003 0.16797,0 1.4681,-0.0763 2.57971,0.33077 3.27148,1.2793 7.63423,10.46776 -13.21231,22.66956 -21.71289,40.61523 -8.50059,17.94567 -13.23414,47.22461 -19.8457,47.22461 -6.33117,10e-6 -13.71679,-6.30586 -17.875,-14.87305 l -2.89649,-9.00195 c -0.50112,-3.01705 -0.54236,-6.11416 0,-9.1875 2.54682,-14.43204 45.15093,-55.04293 58.89063,-56.05664 z m -106.93164,54.25195 6.66992,18.7129 c -6.6787,22.70754 -6.01536,37.28075 -24.04102,22.70117 -22.707554,-18.3664 -9.29099,-22.68356 -0.75586,-28.88867 6.75111,-4.90811 13.11794,-8.85211 18.12696,-12.5254 z"
       id="path2417"
       inkscape:connector-curvature="0" />
  </g>
</svg>
