<?xml version="1.0" encoding="UTF-8" standalone="no"?>
<!-- Created with Inkscape (http://www.inkscape.org/) -->

<svg
   xmlns:dc="http://purl.org/dc/elements/1.1/"
   xmlns:cc="http://creativecommons.org/ns#"
   xmlns:rdf="http://www.w3.org/1999/02/22-rdf-syntax-ns#"
   xmlns:svg="http://www.w3.org/2000/svg"
   xmlns="http://www.w3.org/2000/svg"
   xmlns:sodipodi="http://sodipodi.sourceforge.net/DTD/sodipodi-0.dtd"
   xmlns:inkscape="http://www.inkscape.org/namespaces/inkscape"
   id="svg1376"
   sodipodi:version="0.32"
   inkscape:version="0.91 r13725"
   width="500"
   height="500"
   sodipodi:docname="1.svg"
   version="1.0">
  <metadata
     id="metadata1381">
    <rdf:RDF>
      <cc:Work
         rdf:about="">
        <dc:format>image/svg+xml</dc:format>
        <dc:type
           rdf:resource="http://purl.org/dc/dcmitype/StillImage" />
        <dc:title></dc:title>
      </cc:Work>
    </rdf:RDF>
  </metadata>
  <defs
     id="defs1379" />
  <sodipodi:namedview
     inkscape:window-height="1017"
     inkscape:window-width="1920"
     inkscape:pageshadow="2"
     inkscape:pageopacity="0.0"
     borderopacity="1.0"
     bordercolor="#666666"
     pagecolor="#ffffff"
     id="base"
     showguides="true"
     inkscape:guide-bbox="true"
     inkscape:zoom="0.85402516"
     inkscape:cx="-63.4658"
     inkscape:cy="343.71782"
     inkscape:window-x="-8"
     inkscape:window-y="-8"
     inkscape:current-layer="svg1376"
     showgrid="false"
     units="px"
     inkscape:window-maximized="1" />
  <path
     style="fill:#000000;fill-opacity:1;fill-rule:evenodd;stroke:#000000;stroke-width:0.51522249px;stroke-linecap:butt;stroke-linejoin:miter;stroke-opacity:1"
     d="m 245.35913,30.736142 c -49.80588,0.76909 -94.71392,25.560999 -91.14605,37.691759 3.46812,11.79164 21.53212,46.143499 19.27252,85.285439 -5.49114,2.68571 -31.28406,16.4678 -28.69146,37.2087 1.8377,14.70121 11.31177,22.4483 25.34251,25.76112 0.91678,6.33003 2.16027,15.01354 3.41335,23.97397 -5.08607,0.95007 -11.44381,2.4284 -13.89489,4.26667 -4.3492,3.26192 -9.78484,12.68652 -19.20816,31.89551 -9.03535,18.41828 -20.66573,25.01059 -19.57845,28.99734 1.08733,3.9868 17.40488,15.58548 17.40488,15.58548 0,0 -33.35559,11.59017 -44.22865,16.66424 -10.87299,5.07409 -24.42381,15.70829 -8.34016,23.57144 16.30952,7.97353 15.86556,5.03425 40.60597,25.35857 19.55155,16.0617 28.30607,27.69364 32.97423,33.34458 6.88627,8.33595 13.05332,-6.52164 22.47658,-22.10628 7.43765,-12.30072 16.66761,-19.93416 9.41894,-34.06909 -6.07211,-11.84057 -16.30246,-34.07088 -15.21519,-47.48094 1.05337,-12.99098 3.8058,-18.15721 3.9769,-18.46752 0.15385,0.0888 5.08272,2.95056 5.79625,6.87501 0.72487,3.98674 0.16229,21.20667 4.34719,32.62003 3.98679,10.873 13.06321,21.38441 18.49969,15.58547 5.43653,-5.79893 22.09402,-34.7978 31.15488,-43.1338 9.0608,-8.33593 17.03357,-14.13018 19.20811,-10.14343 2.1746,3.98677 -15.94536,25.01156 -38.41628,61.6174 -22.47086,36.60578 -46.02852,77.54967 -53.2772,93.49673 -7.24866,15.94706 -4.34435,15.59509 6.8911,12.33316 11.97605,-6.96479 143.30255,-40.21058 154.0354,-41.6847 10.9852,-1.50878 15.9437,-6.88641 7.24531,-17.03455 -8.69838,-10.14813 -59.54029,-63.39487 -63.42063,-73.2099 -6.16139,-15.58466 -5.06953,-16.67748 7.6156,-5.44203 7.30029,6.46598 14.84587,15.22053 12.6713,3.62269 -2.17462,-11.59793 -6.88263,-38.40506 -7.96989,-45.29131 -1.07255,-6.79255 -0.72719,-11.96182 5.07174,-14.13643 5.79893,-2.1746 8.56758,1.23159 10.15953,7.59955 2.17459,8.69838 7.24432,25.00826 9.41893,34.06907 1.53186,6.38273 1.81636,9.0657 8.34016,6.89111 6.5238,-2.17461 31.8918,-13.04023 39.86535,-15.93971 7.97351,-2.89945 12.68599,-3.62529 15.58547,2.17364 2.89945,5.79893 -6.16424,8.69303 -11.23831,11.59249 -5.07406,2.89947 -44.22591,19.57676 -50.02488,23.20109 -5.79894,3.62433 -7.97349,6.51679 0,15.2152 7.97352,8.69839 26.09592,26.82039 33.34456,34.06906 7.24874,7.24868 8.60251,6.87651 21.75202,5.44204 19.93387,-2.17461 47.12477,-26.46652 51.47399,-32.99034 4.34919,-6.52381 5.79961,-13.03951 -1.44908,-17.38876 -7.24867,-4.34919 -20.30131,-14.50507 -23.92563,-18.12939 -3.62435,-3.62436 -9.42059,-5.06835 -5.79626,-12.31703 3.62434,-7.24864 0.71148,-6.88811 -5.81238,-13.41189 -6.5238,-6.5238 -18.58475,-19.62354 -20.28688,-35.88845 -3.26193,-31.16931 -11.99816,-21.96486 -7.79275,-37.49857 4.87421,-18.00377 12.7379,-15.99152 18.4836,-14.94144 2.92338,1.19191 5.17739,0.84527 6.6979,-1.91596 7.42545,-13.4843 6.38102,-37.62927 -34.05294,-48.59192 -1.66279,-43.79549 12.71959,-69.975259 26.08312,-105.813859 -50.7407,-26.09522 -70.98266,-28.981259 -122.49413,-28.981259 -0.59462,0 -1.19382,-0.007 -1.7872,0 -0.19543,0.003 -0.38431,-0.003 -0.57963,0 z m 95.84749,34.874139 c 0.0369,-0.003 0.076,0.003 0.1127,0 0.0369,-0.003 0.076,0.003 0.11274,0 0.0368,-0.003 0.076,0 0.11267,0 0.074,-0.003 0.15198,0.003 0.2254,0 0.074,-0.003 0.15198,0.003 0.22541,0 5.25887,-0.11118 9.01259,1.03402 9.3706,1.69057 0.003,0.006 0.0122,0.0239 0.0162,0.0322 0.67959,1.94807 -6.74999,17.71203 -12.22045,36.162169 -5.47047,18.45014 -8.44362,38.14224 -10.98067,38.86711 -5.07407,1.44973 -7.24191,-3.62233 -14.49064,-4.3472 -7.24865,-0.72486 -10.15751,3.6247 -14.50671,-0.72451 -4.34919,-4.34919 -2.17963,-21.03054 10.86795,-49.300379 8.08291,-17.51293 21.76191,-21.96949 31.15488,-22.37997 z M 218.56756,125.08629 c 0.0823,-0.002 0.16023,0.002 0.24154,0 0.0839,-0.002 0.17466,0.002 0.25761,0 0.0856,-0.002 0.17302,10e-4 0.25761,0 0.18048,-0.002 0.35561,10e-4 0.5313,0 4.109,-0.023 6.8995,0.33439 8.11475,1.51346 2.17496,2.11394 2.17862,8.13568 2.70492,18.64463 0.66107,13.26331 0.21722,19.28647 -2.35071,21.92915 -2.37831,2.44756 -6.62302,2.28764 -17.00233,2.54391 -10.123,0.25627 -14.34174,0.37477 -16.68033,-1.86768 -2.33855,-2.24246 -2.9142,-8.26731 -2.9142,-19.03104 0,-10.76376 -0.57087,-18.12303 1.15925,-20.5284 1.66881,-2.32015 8.07549,-2.32745 16.77693,-2.78542 3.37208,-0.17747 6.35495,-0.3618 8.90366,-0.41861 z m -8.50116,9.6121 c -0.21527,0.009 -0.43244,0.0283 -0.66011,0.0319 -3.45926,0.0607 -6.92196,2.17527 -6.66569,11.78572 0.25627,9.6105 0.38683,13.33138 6.66569,13.33138 7.6884,0 8.45088,-3.5893 8.06642,-15.76256 -0.27708,-8.68279 -0.79138,-9.42286 -6.35974,-9.38674 -0.13087,0 -0.26617,0 -0.40255,0 -0.10219,0 -0.20058,0 -0.30589,0 -0.079,0 -0.16023,-0.005 -0.24153,0 -0.0304,0 -0.0659,0 -0.0966,0 z m 92.69176,18.96662 c 0.0189,0 0.0453,0 0.0644,0 0.003,-1.5e-4 0.0128,1.1e-4 0.016,0 0.0206,0 0.0458,5.6e-4 0.0644,0 0.0993,-0.005 0.19104,0 0.28981,0 12.44937,-0.12406 21.54016,4.25491 21.36567,7.53513 -0.31049,5.83583 -28.00151,1.17276 -66.33489,22.12237 -55.17451,30.1535 -63.77491,23.54881 -63.77491,20.28688 0,-3.26187 10.13113,-5.84391 24.27986,-13.41186 15.58466,-8.33598 40.23352,-21.37704 62.34192,-31.52517 7.51343,-3.44879 14.96114,-4.85097 21.52667,-4.99122 0.0561,0 0.10431,-0.0113 0.161,-0.0159 z m 6.06995,35.00293 c 6.94384,-0.24086 14.22863,3.14559 26.24414,8.42069 14.85977,6.5238 11.58496,12.68297 10.49765,22.10624 -1.08727,9.42327 -6.51023,18.8457 -11.94673,19.20817 -5.43651,0.36241 -2.89776,-5.43117 -3.62262,-11.59251 -0.72488,-6.16139 -2.90298,-14.86097 -9.78923,-14.86097 -6.88626,0 -6.52834,9.42346 -7.61565,17.03454 -1.08728,7.61112 -6.5181,15.21318 -12.31703,19.56238 -5.67207,4.25403 -16.54701,9.2045 -17.36897,9.41888 0.75606,-0.79998 10.27019,-32.45824 13.00773,-41.66624 3.98678,-13.41006 -0.71446,-24.28908 7.98388,-26.82615 1.66495,-0.48559 3.2831,-0.74799 4.92683,-0.80503 z m -23.18503,1.8516 c 0.003,2.2e-4 0.0147,-4e-5 0.0161,0 2.41418,10.87064 3.7755,32.48535 -22.17068,79.55355 -13.58566,24.64535 -25.55262,25.77245 -41.13728,27.4034 -32.65278,3.41716 -38.94685,-9.839 -36.35538,-19.56233 4.77189,-3.73918 10.3553,-7.24532 13.8788,-7.24532 9.42332,0 13.77716,5.79693 24.65016,4.34719 10.87299,-1.44973 19.57845,-15.23126 19.57845,-15.23126 0,0 -12.33005,2.17728 -18.8539,-5.79626 -5.24094,-6.40566 -10.42079,-9.96316 -17.08286,-11.51202 -0.60174,-3.90987 -0.95327,-8.5291 -0.3059,-12.41362 0.68623,-4.11719 2.18733,-9.0421 3.57436,-13.08989 1.4876,-0.25896 2.96202,-0.54279 4.42767,-0.85331 0.002,10e-5 0.0148,-5e-5 0.0162,0 3.89549,0.19181 5.22642,1.81827 8.27575,5.24882 5.79894,6.5238 11.96502,10.86966 24.65016,7.24532 10.46046,-2.98876 17.03423,-11.58818 17.7591,-21.01144 0.41624,-5.41103 2.62521,-9.27859 6.21487,-12.26874 0.002,-0.005 0.0132,-0.0134 0.016,-0.0159 0.005,1.6e-4 0.0265,-1e-4 0.0322,0 0.003,-0.005 0.0133,-0.0129 0.0161,-0.0159 10e-4,0 0.0149,-0.0145 0.0161,-0.0159 4.26933,-1.72373 8.52281,-3.33741 12.78394,-4.7658 z m -103.12497,27.9347 c 4.73011,0.31665 9.7731,0.31964 15.05414,0.0644 l -4.25059,25.51964 c -3.07361,1.30331 -6.37721,3.00133 -9.53162,4.78189 -0.86434,-11.35798 -1.17032,-22.6157 -1.27193,-30.36593 z"
     id="path2260"
     sodipodi:nodetypes="cscsccssscssssssscssssssscsssssssssssssssssssssssscsccssccssssssssssssccssssccscssssccssscssssccssssssssssccssssssscsscccsscsscscscsssssssssccccccc"
     inkscape:connector-curvature="0" />
</svg>
