<?xml version="1.0" encoding="UTF-8" standalone="no"?>
<!-- Created with Inkscape (http://www.inkscape.org/) -->

<svg
   xmlns:dc="http://purl.org/dc/elements/1.1/"
   xmlns:cc="http://creativecommons.org/ns#"
   xmlns:rdf="http://www.w3.org/1999/02/22-rdf-syntax-ns#"
   xmlns:svg="http://www.w3.org/2000/svg"
   xmlns="http://www.w3.org/2000/svg"
   xmlns:sodipodi="http://sodipodi.sourceforge.net/DTD/sodipodi-0.dtd"
   xmlns:inkscape="http://www.inkscape.org/namespaces/inkscape"
   id="svg1376"
   sodipodi:version="0.32"
   inkscape:version="0.91 r13725"
   width="500"
   height="500"
   sodipodi:docname="10.svg"
   version="1.0">
  <metadata
     id="metadata1381">
    <rdf:RDF>
      <cc:Work
         rdf:about="">
        <dc:format>image/svg+xml</dc:format>
        <dc:type
           rdf:resource="http://purl.org/dc/dcmitype/StillImage" />
        <dc:title></dc:title>
      </cc:Work>
    </rdf:RDF>
  </metadata>
  <defs
     id="defs1379" />
  <sodipodi:namedview
     inkscape:window-height="1008"
     inkscape:window-width="958"
     inkscape:pageshadow="2"
     inkscape:pageopacity="0.0"
     borderopacity="1.0"
     bordercolor="#666666"
     pagecolor="#ffffff"
     id="base"
     showguides="true"
     inkscape:guide-bbox="true"
     inkscape:zoom="0.5330295"
     inkscape:cx="-63.4658"
     inkscape:cy="343.71782"
     inkscape:window-x="953"
     inkscape:window-y="0"
     inkscape:current-layer="svg1376"
     showgrid="false"
     units="px"
     inkscape:window-maximized="0" />
  <path
     inkscape:connector-curvature="0"
     style="opacity:1;fill:#000000;fill-opacity:1;fill-rule:evenodd;stroke:none;stroke-width:1px;stroke-linecap:butt;stroke-linejoin:miter;stroke-opacity:1"
     d="m 277.21157,25.144345 c 6e-5,10e-4 -1.5e-4,0.0167 0,0.0176 -0.009,1.4e-4 -0.0281,-1.1e-4 -0.0352,0 -29.60726,0.46025 -58.82145,17.041759 -72.3424,35.713559 -8.91109,12.305787 -12.81807,37.669 -3.81954,66.005836 l -30.13387,43.35264 c -4.19059,-8.98202 -16.13199,-14.68377 -29.4474,-13.27158 -15.80829,1.67658 -27.6007,12.74957 -26.33194,24.71259 0.57826,5.45233 3.77288,10.15545 8.57197,13.5004 l 8.92399,116.69832 c -19.95821,22.03337 -39.885143,74.70103 -39.885143,74.70102 0,0 -9.907465,-4.35729 -14.662091,-2.37621 -4.754623,1.98109 -10.060977,47.96015 -10.701747,53.08629 -0.792437,6.3395 26.639018,31.82857 68.153231,36.84006 43.79881,5.28728 80.42811,-19.80175 142.23819,-19.80175 59.87621,0 75.68193,4.75737 124.02057,13.07796 7.13194,-7.13193 10.30774,-37.25461 5.94933,-73.31049 0,0 12.28037,-1.18498 24.16694,-7.9207 0,0 -16.25377,-41.59743 -19.02728,-49.91802 -2.77354,-8.32059 1.19121,-23.38129 -5.54449,-28.53212 -6.73572,-5.15084 -44.77105,7.92105 -60.61976,7.12863 -15.84875,-0.79244 -13.47383,-12.67295 -13.87003,-32.08764 -0.37272,-18.26316 -3.20386,-26.37345 8.99439,-37.82575 26.63055,13.51143 49.88698,24.30619 52.0302,21.96674 5.03147,-5.49211 -24.97076,-74.47438 -37.64972,-107.75673 0,0 49.13969,15.04458 76.47876,-12.69073 0,0 -24.15846,-9.50969 -55.05767,-30.5035 1.09609,-0.25024 36.30954,-8.58711 53.86076,-50.71008 0,0 -35.26157,9.508508 -80.03427,1.584141 0,0 18.61949,-8.730553 24.959,-27.352821 -17.03739,0.396218 -43.17771,-2.371815 -78.83737,-11.881055 -6.37277,-1.69941 -12.89997,-2.47078 -19.41452,-2.44661 -0.16019,5.6e-4 -0.3309,-0.003 -0.49284,0 -0.0405,10e-4 -0.0836,-0.002 -0.12322,0 -0.004,1.5e-4 -0.0139,-4e-5 -0.0176,0 -0.0147,-1.6e-4 -0.0382,2e-5 -0.0528,0 -0.002,4e-5 -0.0141,4e-5 -0.0176,0 -0.0172,2.6e-4 -0.0532,-5.4e-4 -0.0704,0 -0.006,1.3e-4 -0.0283,3e-4 -0.0352,0 -0.002,-10e-6 -0.0155,-9e-5 -0.0176,0 -0.002,4e-5 -0.0161,4e-5 -0.0176,0 -0.002,-10e-5 -0.0139,-3e-5 -0.0176,0 -0.002,-4e-5 -0.0159,9e-5 -0.0176,0 -0.002,-9e-5 -0.016,10e-6 -0.0176,0 -0.002,-10e-5 -0.016,10e-6 -0.0176,0 -10e-4,-1.5e-4 -0.0166,7e-5 -0.0176,0 z m 0.59845,12.4091 c 25.32987,2.782722 45.40704,11.466711 70.81107,13.834827 -10.91478,10.979571 -17.57451,13.583368 -26.66636,22.47719 32.91939,7.121286 43.11493,8.35941 77.35884,10.472926 -16.94898,14.769329 -24.47913,22.041292 -45.78165,30.221872 20.44377,14.93412 23.50612,20.2853 45.92246,32.08764 -20.11307,6.23415 -41.57304,1.77386 -61.0246,-4.66441 -0.0173,-0.01 -0.0384,-0.0146 -0.0528,-0.0176 -0.003,-3.4e-4 -0.0144,-9e-5 -0.0176,0 -0.003,5e-4 -0.0147,-0.001 -0.0176,0 -0.0108,0.005 -0.0273,0.0232 -0.0352,0.0352 -0.002,0.003 -0.016,0.0138 -0.0176,0.0176 -0.34361,1.01373 4.42076,13.8029 10.93056,30.83793 -17.76315,-9.45879 -41.03221,-23.12682 -54.03678,-35.90718 l 7.51587,49.91802 c 0,0 -25.35504,-19.00472 -44.37353,-48.72111 l 1.44344,54.03678 c -21.28049,-15.36067 -39.14598,-36.67279 -48.35149,-60.72537 -6.74932,-18.36933 -6.74043,-42.293977 1.97138,-60.602165 13.99862,-20.802675 38.96339,-32.276272 63.57683,-33.28455 l 0.28162,0 0.56325,-0.0176 z M 204.83396,141.70186 c 2.77353,7.13193 5.16257,9.50942 12.69072,18.62245 l -43.19422,58.24356 -27.74006,3.96035 c -0.0443,-0.86794 44.43008,-61.88216 58.24356,-80.82636 z m 124.42541,40.81801 22.17797,7.51587 17.44313,47.94664 -26.56074,-12.28588 -13.06036,-43.17663 z m -71.1631,30.29229 c -4.24378,45.18617 -14.20918,54.46009 -28.02168,46.64412 -3.53227,-7.36155 -8.53956,-9.54948 -15.859,-9.32882 -0.7237,0.0218 -1.48329,0.0746 -2.253,0.14081 -5.64401,0.48552 -10.56127,0.39941 -14.87332,1.02089 -0.54318,-0.6596 -1.13493,-1.40501 -1.76015,-2.2178 -3.53511,-4.59563 -2.96877,-4.76414 10.70174,-23.88531 l 28.91936,6.86461 2.165,-15.20775 20.98105,-4.03075 z m -66.53389,12.79633 c -2.94119,4.70258 -6.59533,10.50025 -9.69845,15.15494 -5.1388,7.7082 -3.2846,11.9834 1.00328,19.69614 -5.14135,8.1643 -15.49355,24.69865 0.17602,27.44083 1.45938,0.25539 2.84674,0.48229 4.17157,0.70406 -0.30359,6.31114 3.78156,20.5318 12.86674,23.07565 9.90546,2.77352 -1.58983,17.0473 -8.32554,16.65107 -8.15416,-0.47966 -7.91777,-6.35269 -14.25726,-9.52244 -5.0175,-2.50875 -10.02256,0.68771 -14.45088,-6.51258 l -4.20677,-80.38631 32.72129,-6.30136 z m 129.75869,30.99634 0.40484,20.61142 c 10e-6,-10e-6 -52.30101,7.91887 -56.65942,11.88106 -4.35841,3.96218 -19.41452,40.41317 -19.41452,40.41317 l -21.79073,-9.1176 c 0,1e-5 16.63127,-41.59065 21.3859,-45.55284 4.75463,-3.96218 76.07393,-18.23521 76.07393,-18.23521 z m -116.3287,3.50271 c 0.0386,-0.003 0.0846,0.003 0.12321,0 0.0389,-0.003 0.0843,0.002 0.12321,0 0.0392,-0.002 0.084,0.002 0.12322,0 0.0396,-0.002 0.0836,0.002 0.12321,0 0.0399,-0.002 0.0833,0.002 0.12321,0 0.0403,-0.002 0.0829,0.002 0.12321,0 0.0406,-0.002 0.0826,0.002 0.12321,0 0.041,-0.002 0.0822,0.001 0.12321,0 0.0832,-0.003 0.16309,0.002 0.24642,0 0.12801,-0.003 0.25902,0.001 0.38724,0 3.68274,-0.0281 7.43657,0.7733 10.91296,2.35861 8.31369,3.79121 11.58585,36.77528 3.76674,31.78841 -10.86108,-6.92698 -16.22065,-11.88429 -31.03155,-15.36616 -7.43376,-1.74759 -1.70847,-9.26608 1.68975,-13.21877 3.52068,-3.31379 8.14643,-5.20332 13.04275,-5.56209 z m 191.11771,65.84743 c 0.0141,-0.003 0.0238,0.002 0.0352,0 0.002,-3.1e-4 0.0155,2e-4 0.0176,0 0.008,-10e-5 0.0292,-5.6e-4 0.0352,0 0.002,2e-4 0.016,2e-5 0.0176,0 6.73565,30.10464 16.63347,53.0863 16.63347,53.0863 -33.28237,10.30168 -72.90565,3.55551 -72.90565,3.55551 4.3584,-29.71638 4.36519,-53.87837 4.36519,-53.87837 26.44368,1.13332 50.00757,-2.43032 51.80138,-2.76344 z m -233.9599,1.88337 c 0.0536,-0.002 0.10506,0.002 0.15841,0 0.0536,-0.002 0.10506,0.002 0.15842,0 0.0536,-0.002 0.10506,0.002 0.15841,0 0.0536,-0.002 0.10507,10e-4 0.15842,0 3.56578,-0.0788 6.6328,0.51842 8.76557,2.07698 10.30169,7.52817 11.09266,31.68262 3.16828,51.09732 -7.92437,19.4147 -40.00834,31.70041 -40.00834,31.70041 l -32.49248,-21.3859 c 14.26387,-34.0748 16.64777,-44.77542 23.77971,-51.11492 2.27687,-2.02387 22.49517,-11.78378 36.1536,-12.37389 z m 56.20177,1.65454 c 0.002,-5.6e-4 0.0156,5.6e-4 0.0176,0 0.002,10e-6 0.0158,-9e-5 0.0176,0 0.003,-1.8e-4 0.0148,2e-5 0.0176,0 0.008,2.9e-4 0.0261,-2.7e-4 0.0352,0 0.003,3e-5 0.016,10e-5 0.0176,0 6.58827,-0.39348 56.90306,24.12933 107.61593,67.766 0,0 -5.53752,23.39156 -20.59382,44.39113 -53.8856,-49.52731 -109.35691,-69.73479 -112.52665,-75.28186 -3.16975,-5.54706 -0.78492,-19.4202 2.78104,-26.15592 3.56597,-6.73571 16.63953,-9.90931 22.5828,-10.70175 0.002,-5.6e-4 0.0154,5.7e-4 0.0176,0 0.005,-0.002 0.0131,-0.016 0.0176,-0.0176 z m -1.54893,10.71935 c -6.66127,0.37715 -11.96907,5.91824 -11.96906,12.67312 0,6.9988 5.69193,12.69072 12.69072,12.69073 6.9988,0 12.67312,-5.69193 12.67312,-12.69073 0,-6.9988 -5.67431,-12.67311 -12.67312,-12.67312 -0.16403,0 -0.33031,-0.006 -0.49284,0 -0.0529,0.002 -0.10567,-0.003 -0.15842,0 -0.0261,0.001 -0.0443,-0.002 -0.0704,0 z m -39.30428,60.21493 c 20.20713,26.94286 -11.89168,40.82645 -26.94799,22.6004 12.28277,-7.13192 26.94799,-22.6004 26.94799,-22.6004 z"
     id="path2183"
     sodipodi:nodetypes="csssccsscccsssscccsssscsccccccsssssssssssssssccccccccsssssccccccccccccccccccccccsscscccccscscssscccccsccsccssssssssssssscccsssccccccssssssccsccsssssccssssccsssssscccc" />
</svg>
