<?xml version="1.0" encoding="UTF-8" standalone="no"?>
<!-- Created with Inkscape (http://www.inkscape.org/) -->

<svg
   xmlns:dc="http://purl.org/dc/elements/1.1/"
   xmlns:cc="http://creativecommons.org/ns#"
   xmlns:rdf="http://www.w3.org/1999/02/22-rdf-syntax-ns#"
   xmlns:svg="http://www.w3.org/2000/svg"
   xmlns="http://www.w3.org/2000/svg"
   xmlns:sodipodi="http://sodipodi.sourceforge.net/DTD/sodipodi-0.dtd"
   xmlns:inkscape="http://www.inkscape.org/namespaces/inkscape"
   id="svg1376"
   sodipodi:version="0.32"
   inkscape:version="0.91 r13725"
   width="500"
   height="500"
   sodipodi:docname="11.svg"
   version="1.0">
  <metadata
     id="metadata1381">
    <rdf:RDF>
      <cc:Work
         rdf:about="">
        <dc:format>image/svg+xml</dc:format>
        <dc:type
           rdf:resource="http://purl.org/dc/dcmitype/StillImage" />
        <dc:title></dc:title>
      </cc:Work>
    </rdf:RDF>
  </metadata>
  <defs
     id="defs1379" />
  <sodipodi:namedview
     inkscape:window-height="1008"
     inkscape:window-width="958"
     inkscape:pageshadow="2"
     inkscape:pageopacity="0.0"
     borderopacity="1.0"
     bordercolor="#666666"
     pagecolor="#ffffff"
     id="base"
     showguides="true"
     inkscape:guide-bbox="true"
     inkscape:zoom="0.5330295"
     inkscape:cx="-63.4658"
     inkscape:cy="343.71782"
     inkscape:window-x="953"
     inkscape:window-y="0"
     inkscape:current-layer="svg1376"
     showgrid="false"
     units="px"
     inkscape:window-maximized="0" />
  <path
     inkscape:connector-curvature="0"
     style="opacity:1;fill:#000000;fill-opacity:1;stroke:none;stroke-opacity:1"
     d="m 314.51714,33.928235 c -11.9758,1.142218 -27.87678,8.259572 -41.21852,37.833966 -0.34117,-0.707225 -11.46558,-23.364753 -37.77908,-33.699307 0.79351,1.117771 8.97727,14.219261 -8.79987,56.439923 0,0 -9.91177,-23.307099 -37.28512,-40.779445 -8.26512,44.425056 -11.02825,63.648748 2.26858,106.440038 -2.1169,10.19407 -2.7004,19.87875 3.56752,26.93017 5.11056,5.7494 12.30917,11.94215 11.43434,15.82513 -53.36846,18.06875 -91.82236,68.60543 -91.82236,128.04637 0,74.58593 60.54058,135.10821 135.12651,135.10822 74.58593,-1e-5 135.10824,-60.52227 135.10823,-135.10822 1e-5,-59.15857 -38.06813,-109.50373 -91.03569,-127.79024 -0.49509,-6.75724 1.32397,-10.16844 10.09882,-14.32495 11.06582,-5.2417 6.99222,-27.37201 -6.40324,-34.94336 -1.31571,-0.74367 -3.32753,-1.57688 -5.89097,-2.45152 0.20119,-9.3209 7.41032,-18.17913 14.61767,-24.93602 9.31858,-8.73617 11.64191,-33.183626 5.81779,-43.08461 -5.82411,-9.900993 -6.59448,-22.343107 2.34175,-49.506145 -0.0468,0.0042 -0.0994,-0.005 -0.14636,0 z m -63.33712,31.449022 c 13.39547,18.054753 10.47972,46.581973 16.88624,47.164383 6.40652,0.58242 9.90915,-32.616334 26.21667,-46.0118 9.31858,23.878875 15.13361,39.61106 -1.75632,54.17135 -16.88994,14.56029 -15.32299,23.86639 -15.73366,34.35792 -0.38889,9.93509 -1.14902,15.15731 -14.54448,16.90454 -13.39547,1.74724 -24.47246,-16.90044 -26.80211,-44.27379 -2.32965,-27.37334 18.06331,-50.66437 15.73366,-62.312603 z m -49.50614,13.391907 c 0,0 8.73866,13.985894 14.56278,29.710996 5.82412,15.72512 2.91127,32.60963 20.96602,62.31261 -0.003,0.002 -0.0165,0.0168 -0.0183,0.0182 -0.003,0.003 -0.0151,0.0149 -0.0183,0.0183 -0.003,0.003 -0.0147,0.0155 -0.0183,0.0182 -0.009,0.005 -0.0294,0.0148 -0.0366,0.0182 -1.27421,0.56691 -15.24729,0.84649 -30.7904,-15.80683 -16.30741,-17.47229 -16.87747,-41.92763 -4.64681,-76.289893 z m 32.30888,140.377166 c -43.09845,51.2522 -2.8947,54.06879 29.41829,42.7919 32.22345,-11.24566 102.78683,5.24095 110.94059,59.69642 -23.00523,-24.46128 -70.35633,-34.29168 -114.43493,11.36117 -40.7688,42.22482 -99.30166,79.62538 -123.76535,19.228 -17.45404,-43.09156 8.44125,-125.50613 97.8414,-133.07749 z m 96.10338,179.382 c -12.52185,42.51603 -64.64849,58.52498 -98.71955,33.77249 22.71404,-2.91207 72.80225,-20.0858 98.71955,-33.77249 z m -163.94105,10.19029 c 11.93942,5.82411 22.11983,12.79989 29.39998,25.61294 -13.10427,-2.03846 -25.3231,-12.21747 -29.39998,-25.61294 z"
     id="path2352" />
</svg>
