<?xml version="1.0" encoding="UTF-8" standalone="no"?>
<!-- Created with Inkscape (http://www.inkscape.org/) -->

<svg
   xmlns:dc="http://purl.org/dc/elements/1.1/"
   xmlns:cc="http://creativecommons.org/ns#"
   xmlns:rdf="http://www.w3.org/1999/02/22-rdf-syntax-ns#"
   xmlns:svg="http://www.w3.org/2000/svg"
   xmlns="http://www.w3.org/2000/svg"
   xmlns:sodipodi="http://sodipodi.sourceforge.net/DTD/sodipodi-0.dtd"
   xmlns:inkscape="http://www.inkscape.org/namespaces/inkscape"
   id="svg1376"
   sodipodi:version="0.32"
   inkscape:version="0.91 r13725"
   width="500"
   height="500"
   sodipodi:docname="2.svg"
   version="1.0">
  <metadata
     id="metadata1381">
    <rdf:RDF>
      <cc:Work
         rdf:about="">
        <dc:format>image/svg+xml</dc:format>
        <dc:type
           rdf:resource="http://purl.org/dc/dcmitype/StillImage" />
        <dc:title></dc:title>
      </cc:Work>
    </rdf:RDF>
  </metadata>
  <defs
     id="defs1379" />
  <sodipodi:namedview
     inkscape:window-height="1017"
     inkscape:window-width="1920"
     inkscape:pageshadow="2"
     inkscape:pageopacity="0.0"
     borderopacity="1.0"
     bordercolor="#666666"
     pagecolor="#ffffff"
     id="base"
     showguides="true"
     inkscape:guide-bbox="true"
     inkscape:zoom="0.85402516"
     inkscape:cx="-63.4658"
     inkscape:cy="343.71782"
     inkscape:window-x="-8"
     inkscape:window-y="-8"
     inkscape:current-layer="svg1376"
     showgrid="false"
     units="px"
     inkscape:window-maximized="1" />
  <path
     style="display:inline;opacity:1;fill:#000000;fill-opacity:1;fill-rule:evenodd;stroke:none;stroke-width:1px;stroke-linecap:butt;stroke-linejoin:miter;stroke-opacity:1"
     d="m 226.99057,27.819263 c -12.63516,0.554148 -18.23362,7.474025 -19.43876,29.006441 -1.45957,0.07809 -2.93861,0.18177 -4.43226,0.266288 -17.97433,1.017059 -24.40056,9.84554 -29.53887,25.25938 -5.1377,15.413836 -17.97494,86.904808 -17.11855,87.761128 -5.99409,36.82194 1.01889,39.16498 20.97989,41.95949 4.70555,0.65874 9.87794,1.05179 15.21649,1.35046 -6.58144,9.66461 -13.15192,19.34566 -19.19165,29.34881 0,-1.9e-4 -0.0122,-5e-5 -0.0183,0 -5.18334,2.45261 -13.41303,3.43958 -23.56609,-3.1384 0,0.7426 3.95386,30.10804 23.49001,30.39496 -2.83696,9.58463 -5.2223,20.06033 0.0183,29.0825 3.53266,5.38864 9.24615,7.89103 15.36866,9.07286 l -0.47597,22.72961 c -23.07429,2.16178 -46.10598,5.68257 -68.58804,11.20317 -10.96501,3.94759 -20.698699,14.98922 -18.86846,27.25652 2.00919,8.23918 11.38438,11.97903 19.21052,11.35533 10.58825,0.63112 21.20266,0.59765 31.80247,0.36137 -4.43104,5.63259 -4.23931,13.75072 -0.53257,19.70537 4.1474,9.41371 8.3289,19.01398 13.7904,27.73206 -3.30015,10.92714 -6.60761,21.84626 -9.9102,32.77255 43.42544,12.45878 90.46145,11.51803 133.69638,-1.42658 4.83762,1.97961 9.67708,3.96865 14.51227,5.95349 4.57469,-2.53751 8.52976,-5.79676 11.88834,-9.5674 33.23648,13.06427 54.56026,19.32671 60.88484,14.05626 7.70685,-6.42245 21.82533,-16.69791 23.11021,-41.95948 1.28427,-25.26157 -8.12318,-51.37114 -26.53392,-59.07805 -4.94657,-2.07054 -11.68139,-5.19071 -19.05896,-8.55927 12.33206,-11.54981 21.39013,-20.12156 26.13463,-45.8207 4.74755,-25.71764 -5.98921,-47.50309 -20.27628,-70.18606 6.33493,-27.68632 10.78545,-70.25619 6.71473,-93.86675 -4.28192,-24.8334 -7.52303,-68.766859 -28.26494,-74.066289 -36.32055,-9.279712 -60.95301,-14.52404 -79.33514,-17.365823 -0.2879,-23.506902 -6.75795,-29.557455 -23.81381,-31.250874 -2.32934,-0.231321 -4.47426,-0.358939 -6.46701,-0.342371 -0.15947,0.0012 -0.31772,-0.003 -0.47537,0 -0.10347,0.0018 -0.20146,-0.003 -0.30433,0 -0.0487,0.0012 -0.10103,-0.0018 -0.15216,0 -0.0487,0.0018 -0.10165,-0.0018 -0.15217,0 -0.0487,0.0018 -0.10225,-0.0018 -0.15216,0 -0.0487,0.0018 -0.10226,-0.0024 -0.15217,0 z m 23.5667,41.502986 c 8.08178,1.992758 16.16235,3.972034 24.25144,5.934433 1.14306,7.371952 2.73045,17.901686 4.10845,28.036388 2.50038,18.39014 0.73526,33.4374 6.44753,51.26057 5.53637,11.27431 19.87092,21.42212 32.63938,18.03154 11.5268,-4.60716 14.6614,-17.57808 14.93164,-29.02546 0.44189,-9.36241 -9.50178,-40.93558 -16.47215,-58.012882 7.60155,1.66687 15.57316,2.18091 22.19721,6.56211 14.43375,18.292232 19.28538,43.445512 14.4934,66.134692 -2.86496,18.74534 -17.24941,36.59458 -36.69061,39.23953 -25.65745,3.07949 -50.37329,-16.43104 -56.41485,-40.91335 -0.73222,-6.19724 -1.29279,-12.41239 -1.78824,-18.6402 -14.06917,24.34384 -31.92177,25.86804 -45.21186,25.86804 -14.53236,-1e-5 -44.18809,-16.95899 -37.52752,-44.81258 19.02549,6.71496 43.20693,30.49254 81.65536,4.43181 -1.27089,-17.54199 -2.62698,-35.067282 -6.33372,-52.287682 -0.095,-0.602318 -0.19051,-1.204641 -0.28546,-1.806959 z m 46.16319,141.475361 c 0.0627,-0.003 0.1266,0.002 0.1899,0 0.0645,-0.002 0.12599,0.002 0.19051,0 10.1348,-0.24013 21.80402,9.49786 15.15928,19.80046 -6.31302,9.78818 -18.76011,30.87949 -30.87061,43.59524 -0.75717,0.79527 -1.60625,1.63407 -2.52959,2.51072 8.81339,6.23554 17.8106,12.19833 24.04206,16.24361 -8.02822,4.3048 -29.50539,5.20824 -44.86979,5.26874 7.55712,-9.80088 15.46361,-16.41793 20.82773,-21.51235 -3.80534,-2.69234 -7.57477,-5.4399 -11.07031,-8.10278 -0.57822,-0.44067 -1.13575,-0.88359 -1.67381,-1.35044 -0.0122,-0.014 -0.0426,-0.0426 -0.0548,-0.0572 -0.006,-0.006 -0.0304,-0.0158 -0.0365,-0.0189 0,-0.006 -0.0122,-0.0158 -0.0183,-0.0189 0,-0.006 -0.0183,-0.0164 -0.0183,-0.0189 0,0 0,-0.017 0,-0.0189 0,0 -0.0122,-0.0152 -0.0183,-0.0189 -0.0183,-0.0146 -0.0609,-0.0426 -0.0761,-0.0572 -0.0122,-0.0116 -0.0243,-0.0268 -0.0365,-0.0377 -0.0688,-0.0609 -0.14121,-0.1098 -0.20938,-0.17116 -0.0426,-0.0365 -0.073,-0.0772 -0.11382,-0.11412 0,0 -0.0122,-0.0152 -0.0183,-0.0189 -0.0122,-0.0128 -0.0243,-0.0256 -0.0365,-0.0377 0,-0.006 -0.0183,-0.0158 -0.0183,-0.0189 0,7e-5 -0.0183,-6e-5 -0.0183,0 0,-0.006 -0.0122,-0.0152 -0.0183,-0.0189 -0.0243,-0.0237 -0.0487,-0.0523 -0.0761,-0.0761 -0.0122,-0.0122 -0.0244,-0.0256 -0.0365,-0.0377 -0.0183,-0.0195 -0.0365,-0.0377 -0.0548,-0.0572 0,-0.006 -0.0183,-0.0158 -0.0183,-0.0189 0,1.9e-4 -0.0183,-6e-5 -0.0183,0 0,-0.006 -0.0122,-0.0152 -0.0183,-0.0189 0,-0.006 -0.0183,-0.0164 -0.0183,-0.0189 0,0 0,-0.017 0,-0.0189 0,0 -0.0122,-0.0152 -0.0183,-0.0189 0,-0.006 -0.0183,-0.0158 -0.0183,-0.0189 -0.006,-0.006 -0.0304,-0.0158 -0.0365,-0.0189 0,-0.006 -0.0183,-0.0158 -0.0183,-0.0189 0,-0.006 -0.0183,-0.0158 -0.0183,-0.0189 0,0 0,-0.017 0,-0.0189 0,-0.006 -0.0122,-0.0158 -0.0183,-0.0189 -0.0122,-0.01 -0.0426,-0.0286 -0.0548,-0.0377 0,-0.006 -0.0122,-0.0158 -0.0183,-0.0189 -0.006,-0.007 -0.0122,-0.0128 -0.0183,-0.0189 0,-0.006 -0.0122,-0.0158 -0.0183,-0.0189 -0.006,-0.006 -0.0304,-0.0158 -0.0365,-0.0189 0,-0.006 -0.0183,-0.0158 -0.0183,-0.0189 0,-0.006 -0.0122,-0.0152 -0.0183,-0.0189 0,0 -0.0183,-0.0164 -0.0183,-0.0189 -0.0122,-0.0195 -0.0426,-0.0566 -0.0548,-0.0761 0,0 -0.0183,-0.017 -0.0183,-0.0189 0,-6e-5 -0.0183,-1.8e-4 -0.0183,0 0,0 -0.0183,-0.017 -0.0183,-0.0189 0,-0.006 -0.0183,-0.0158 -0.0183,-0.0189 0,-0.007 -0.0183,-0.0317 -0.0183,-0.0377 0,0 -0.0183,-0.017 -0.0183,-0.0189 0,6e-5 -0.0183,-6e-5 -0.0183,0 0,-0.006 -0.0183,-0.0152 -0.0183,-0.0189 0,-0.006 -0.0183,-0.0164 -0.0183,-0.0189 0,-0.007 -0.0122,-0.031 -0.0183,-0.0377 0,0 -0.0122,-0.0152 -0.0183,-0.0189 -0.0122,-0.0128 -0.0244,-0.0256 -0.0365,-0.0377 -0.0183,-0.0195 -0.0365,-0.0371 -0.0548,-0.0572 0,-0.006 -0.0183,-0.0164 -0.0183,-0.0189 0,1.8e-4 -0.0183,-6e-5 -0.0183,0 0,0 -0.0122,-0.0152 -0.0183,-0.0189 0,-0.006 -0.0183,-0.0164 -0.0183,-0.0189 0,0 0,-0.017 0,-0.0189 0,0 -0.0122,-0.0152 -0.0183,-0.0189 0,-0.006 -0.0183,-0.0164 -0.0183,-0.0189 -0.006,-0.006 -0.0304,-0.0158 -0.0365,-0.0191 0,-0.002 -0.0122,-0.0152 -0.0183,-0.019 0,-0.003 -0.0122,-0.0156 -0.0183,-0.019 0,-0.002 0,-0.0169 0,-0.019 0,-0.004 -0.0122,-0.0157 -0.0183,-0.019 -0.006,-0.003 -0.0304,-0.0159 -0.0365,-0.019 0,-0.004 -0.0122,-0.0156 -0.0183,-0.019 0,-0.002 -0.0183,-0.0173 -0.0183,-0.019 0,-0.002 0,-0.0169 0,-0.019 -0.10773,-0.10939 -0.21729,-0.21285 -0.32319,-0.32335 -0.0183,-0.0223 -0.0365,-0.0346 -0.0548,-0.057 -0.0122,-0.013 -0.0244,-0.025 -0.0365,-0.038 -0.0183,-0.0187 -0.0365,-0.0383 -0.0548,-0.057 -0.0183,-0.0196 -0.0365,-0.0374 -0.0548,-0.057 -0.0122,-0.0135 -0.0244,-0.0245 -0.0365,-0.038 -0.0122,-0.0179 -0.0426,-0.0582 -0.0548,-0.0761 -0.006,-0.006 -0.0304,-0.0317 -0.0365,-0.038 -0.0243,-0.0263 -0.0487,-0.0497 -0.0761,-0.0761 0,-0.004 -0.0183,-0.016 -0.0183,-0.019 -0.067,-0.0724 -0.12417,-0.13634 -0.19051,-0.20923 -0.0243,-0.0274 -0.0487,-0.0486 -0.0761,-0.0761 0,-0.007 -0.0183,-0.0315 -0.0183,-0.038 -0.0243,-0.0275 -0.0487,-0.0485 -0.0761,-0.0761 -0.0487,-0.0533 -0.0858,-0.0987 -0.1333,-0.15217 -0.0122,-0.0138 -0.0243,-0.0242 -0.0365,-0.038 -0.0122,-0.018 -0.0426,-0.0581 -0.0548,-0.0761 -0.0122,-0.0139 -0.0243,-0.0242 -0.0365,-0.038 -0.0548,-0.0638 -0.0974,-0.12612 -0.15217,-0.19021 0,-0.004 -0.0183,-0.0171 -0.0183,-0.019 -0.0183,-0.0159 -0.0426,-0.0411 -0.0548,-0.057 0,-0.002 -0.0122,-0.0152 -0.0183,-0.019 0,-0.007 -0.0183,-0.0315 -0.0183,-0.038 -0.0243,-0.028 -0.0548,-0.048 -0.0761,-0.0761 0,-0.003 -0.0122,-0.0156 -0.0183,-0.019 0,-0.002 0,-0.0169 0,-0.019 -0.0122,-0.0148 -0.0426,-0.0423 -0.0548,-0.057 0,-0.004 -0.0122,-0.0156 -0.0183,-0.019 0,-0.007 -0.0183,-0.0315 -0.0183,-0.038 -0.0122,-0.0148 -0.0426,-0.0422 -0.0548,-0.057 0,-0.002 -0.0183,-0.0169 -0.0183,-0.019 0,-0.007 -0.0183,-0.0313 -0.0183,-0.038 -0.006,-0.007 -0.0304,-0.0315 -0.0365,-0.038 -0.0122,-0.0186 -0.0426,-0.0574 -0.0548,-0.0761 -0.0304,-0.0393 -0.0627,-0.0748 -0.0949,-0.11413 0,-0.003 -0.0183,-0.0158 -0.0183,-0.019 -0.0548,-0.0685 -0.11625,-0.14043 -0.17164,-0.20922 0,-0.004 0,-0.0169 0,-0.019 -0.0243,-0.0285 -0.0548,-0.0475 -0.0761,-0.0761 -0.0548,-0.0692 -0.11626,-0.13971 -0.17104,-0.20922 0,-0.004 0,-0.0169 0,-0.019 13.75571,-13.90292 17.62314,-32.35849 25.22165,-45.80165 2.20456,-3.90089 5.91374,-5.68248 9.89072,-5.87737 z m -92.64958,3.19546 c 15.3711,0.73219 30.20413,1.72039 37.16598,7.07567 9.00391,6.92576 9.44884,25.11516 18.46917,38.80206 -8.40133,9.11713 -16.88909,18.15293 -26.2101,26.3055 -8.48776,8.26468 -20.10829,13.5442 -32.12628,13.33348 -6.66604,-0.58273 -14.93042,0.233 -19.6098,-5.49699 -3.98368,-8.29116 -0.0822,-17.24783 2.37743,-25.52567 11.44036,10.12384 39.70591,11.76515 42.16855,-25.63978 -5.79018,6.86729 -27.6082,15.93888 -42.56783,1.88305 6.23937,-10.42327 13.35399,-20.54012 20.33288,-30.73732 z m 144.23349,41.19866 c 11.13908,10.90208 16.50807,27.55197 16.98526,47.5896 0.52467,22.03433 -2.23195,26.39142 -24.8601,51.98331 -11.98512,-5.24518 -23.88563,-9.95098 -31.42206,-11.12703 -0.0365,-6.55672 0.3579,-15.86587 1.78825,-28.74018 1.78824,-16.09339 6.95698,-28.52277 11.73556,-36.99507 9.79091,14.15231 16.49712,33.25017 8.23578,57.57538 15.83733,-18.47642 21.09493,-30.96435 4.92649,-70.77571 4.49191,-4.37376 9.05503,-7.46375 12.61082,-9.5103 z m -132.15524,52.05941 c 9.22423,10.93963 12.70699,25.38714 13.04784,36.27235 -9.10799,-4.4417 -18.40953,-8.8801 -28.20773,-11.5265 l 0.45649,-22.74865 c 5.00562,0.0505 9.94489,-0.63831 14.7034,-1.9972 z m 85.97318,1.19833 -5.05978,38.02218 c -7.44756,2.91676 -19.26408,6.38886 -31.04165,8.50225 -4.4633,-0.17256 -8.93026,-0.34566 -13.39051,-0.51359 -5.31726,-1.35007 -10.08245,-4.16341 -14.93104,-6.77134 2.22709,-15.24187 6.75126,-27.32979 12.15433,-37.07115 l 52.26865,-2.16835 z m -109.36885,31.8595 1.23619,0.0189 c 14.66992,3.39979 28.09817,10.34618 41.50329,17.21363 0.54719,0.42837 0.92273,0.72205 1.08402,0.83691 0,0 0,-0.017 0,-0.0189 0,-0.0797 0.0122,-0.16769 0.0183,-0.2473 3.69396,1.89038 7.38792,3.76517 11.10804,5.55402 0.0682,0.006 0.14121,0.0134 0.20938,0.0189 -0.41145,6.9011 -1.44495,18.168 -4.0135,30.1096 -2.93556,13.6514 -7.88701,26.98446 -10.70815,34.02793 -8.74583,0.96351 -17.26768,4.19665 -25.92525,6.12464 -7.03002,0.6212 -13.84275,4.31174 -21.03711,3.21445 -9.31006,-5.03173 -14.14038,-15.55539 -18.75402,-24.78383 -2.84731,-7.67435 -8.99052,-14.33078 -9.03495,-22.82475 1.92824,-6.2482 9.38249,-7.671 14.81721,-9.43423 4.31053,0.0189 6.68552,-6.88631 2.26361,-8.69245 -16.16965,-1.05408 -32.46043,0.69028 -48.67391,-0.0951 -5.33673,-0.92164 -12.46718,1.25432 -16.22443,-3.53784 -1.18202,-7.19217 5.15778,-13.40695 11.33628,-16.07245 23.13881,-6.00406 46.98245,-9.27494 70.79443,-11.41237 z m 94.62772,15.48279 c 0.72248,0.0262 1.44618,0.0499 2.16805,0.0761 -0.7243,-0.0262 -1.44374,-0.0493 -2.16805,-0.0761 z m 22.5965,0.74183 c 0.0767,0 0.15155,0.017 0.22824,0.0189 -0.0761,0 -0.15216,0 -0.22824,0 0,-0.006 0,-0.0134 0,-0.0189 z m -73.36237,1.88301 c 0,0 0,0.0152 0,0.0189 0,-6e-5 0.0183,1.8e-4 0.0183,0 0,0 0,-0.017 0,-0.0189 0,1.8e-4 -0.0122,6e-5 -0.0183,0 z m 18.94453,5.80132 c 21.1625,1.33089 42.44672,1.43711 63.64268,2.3966 2.13823,13.60756 2.4176,27.51361 1.97815,41.29374 0.0937,17.03851 -4.37687,35.80995 -18.39309,46.69564 -20.49053,-7.33763 -40.65238,-16.25559 -60.97979,-24.44152 2.88444,-6.26603 7.94483,-18.4377 10.87979,-32.52527 2.73592,-13.13153 3.02017,-25.90115 2.87226,-33.41919 z m 88.35062,52.00238 c 0.0365,0 0.0767,0 0.11382,0 0.0548,0 0.11443,0 0.17164,0 1.24471,-0.0377 2.46994,0.17535 3.65196,0.6467 5.81696,2.32051 8.13169,10.26334 5.15413,17.72721 -2.97696,7.46388 -10.1214,11.64062 -15.93897,9.32011 -5.81757,-2.32052 -8.11283,-10.26341 -5.13588,-17.72722 2.32691,-5.83212 7.19132,-9.68025 11.9833,-9.9668 z m -178.54669,12.72476 c 0.0426,0.0668 0.0907,0.14249 0.1333,0.20926 -0.0426,-0.0666 -0.0907,-0.14255 -0.1333,-0.20926 z m 163.25411,0.58967 c -0.0304,0.11534 -0.067,0.22715 -0.095,0.34237 0.0304,-0.1165 0.067,-0.22581 0.095,-0.34237 z m -162.53102,0.53258 c 0.067,0.1025 0.14182,0.20207 0.20877,0.30433 -0.0651,-0.0995 -0.14364,-0.20457 -0.20877,-0.30433 z m 162.35999,0.15216 c -0.0304,0.1151 -0.0657,0.2274 -0.0956,0.34237 0.0304,-0.11619 0.0663,-0.22605 0.0956,-0.34237 z m -161.23823,1.54064 c 0.0694,0.10098 0.13999,0.18467 0.20938,0.28534 -0.0688,-0.0999 -0.1406,-0.18515 -0.20938,-0.28534 z m 2.70123,3.70905 c 0.0688,0.09 0.12052,0.17657 0.18991,0.26629 -0.067,-0.0872 -0.12295,-0.17882 -0.18991,-0.26629 z m 63.47165,1.76889 c -0.39806,0.10846 -0.79978,0.21553 -1.19845,0.32338 -0.39806,0.10785 -0.79917,0.21607 -1.19784,0.32332 0.39867,-0.10725 0.79978,-0.21547 1.19784,-0.32332 0.39867,-0.10785 0.80039,-0.21492 1.19845,-0.32338 z m -61.98834,0.11412 c 0.10834,0.13178 0.21485,0.26836 0.32381,0.39947 -0.10774,-0.12971 -0.21669,-0.26909 -0.32381,-0.39947 z m 1.14124,1.36949 c 0.0426,0.0499 0.0901,0.10231 0.13329,0.15216 -0.0426,-0.0505 -0.0895,-0.10158 -0.13329,-0.15216 z m 54.87493,0.11412 c -0.39928,0.1053 -0.79917,0.21881 -1.19845,0.32338 0.39928,-0.10457 0.79917,-0.21808 1.19845,-0.32338 z m -54.55113,0.26629 c 0.0949,0.10919 0.1893,0.21473 0.28485,0.32338 -0.0937,-0.1067 -0.19172,-0.2162 -0.28485,-0.32338 z m 51.54557,0.51359 c -0.39928,0.10347 -0.79856,0.22057 -1.19845,0.32332 0.39989,-0.10275 0.79917,-0.21985 1.19845,-0.32332 z m -5.40186,1.38847 c -0.39988,0.1 -0.79795,0.18619 -1.19845,0.28534 0.4005,-0.0992 0.79857,-0.18534 1.19845,-0.28534 z m 105.75463,0.15217 c -0.0304,0.0737 -0.0627,0.13567 -0.0949,0.20925 0.0304,-0.0673 0.0657,-0.14188 0.0949,-0.20925 z m -148.77896,1.16028 c 0.0426,0.0365 0.0895,0.059 0.13269,0.0951 -0.0426,-0.0359 -0.0901,-0.0584 -0.13269,-0.0951 z m 0.4565,0.36137 c 0.0243,0.0177 0.0548,0.0396 0.0761,0.0572 -0.0244,-0.0207 -0.0487,-0.0365 -0.0761,-0.0572 z m 0.26598,0.20925 c 0.0243,0.0177 0.0548,0.0396 0.0761,0.0572 -0.0243,-0.0201 -0.0487,-0.0371 -0.0761,-0.0572 z m 0.89412,0.66569 c 0.0487,0.0323 0.0864,0.0631 0.1333,0.0951 0.0426,0.0298 0.0901,0.0659 0.13269,0.0951 -0.0487,-0.0316 -0.0864,-0.063 -0.13269,-0.0951 -0.0487,-0.0323 -0.087,-0.0627 -0.1333,-0.0951 z m 0.28546,0.19021 c 0.0487,0.0317 0.0858,0.0638 0.13269,0.0951 0.0304,0.0183 0.0487,0.039 0.0761,0.0572 -0.0244,-0.0158 -0.0548,-0.0414 -0.0761,-0.0572 -0.0426,-0.0286 -0.0895,-0.066 -0.13269,-0.0951 z m 28.96795,0.13317 c -0.56484,0.1274 -1.12663,0.27402 -1.69268,0.39941 0.56057,-0.12423 1.13271,-0.27317 1.69268,-0.39941 z m -27.82671,0.58961 c 0.0426,0.0262 0.0876,0.069 0.13269,0.0951 -0.0487,-0.0286 -0.084,-0.0663 -0.13269,-0.0951 z m 24.93557,0.0761 c -0.40232,0.0882 -0.81377,0.1602 -1.21731,0.24729 0.40354,-0.0871 0.81499,-0.1591 1.21731,-0.24729 z m -24.04206,0.41845 c 0.0712,0.0377 0.13817,0.0963 0.20938,0.13317 -0.0755,-0.0389 -0.1339,-0.0934 -0.20938,-0.13317 z m 21.01824,0.22825 c -0.40354,0.0854 -0.81377,0.163 -1.21732,0.2473 0.40355,-0.0843 0.81378,-0.16185 1.21732,-0.2473 z m -20.40958,0.0951 c 0.0712,0.0347 0.13817,0.061 0.20938,0.0951 -0.0712,-0.0341 -0.13816,-0.0602 -0.20938,-0.0951 z m 0.68475,0.32332 c 0.0487,0.0231 0.10043,0.0341 0.15216,0.0572 -0.0548,-0.0225 -0.10043,-0.0341 -0.15216,-0.0572 z m 0.30433,0.13318 c 0.0548,0.0219 0.10043,0.0353 0.15216,0.0572 -0.0548,-0.0219 -0.0998,-0.0347 -0.15216,-0.0572 z m 16.39607,0.0761 c -0.40415,0.0825 -0.81317,0.16586 -1.21732,0.24724 0.40415,-0.0814 0.81317,-0.16471 1.21732,-0.24724 z m -15.69185,0.20919 c 0.0548,0.0207 0.11808,0.0371 0.17103,0.0572 -0.0548,-0.0201 -0.11869,-0.0365 -0.17103,-0.0572 z m 0.79856,0.28534 c 0.0487,0.0164 0.10347,0.0408 0.15216,0.0572 -0.0548,-0.0177 -0.0986,-0.039 -0.15216,-0.0572 z m 11.84999,0.11413 c -0.0426,0.0152 -0.0895,0.042 -0.13329,0.0572 0.0487,-0.017 0.0846,-0.0396 0.13329,-0.0572 z m -10.80371,0.20919 c 0.0548,0.0152 0.11687,0.042 0.17104,0.0572 -0.0548,-0.0146 -0.11687,-0.042 -0.17104,-0.0572 z m 0.74196,0.19021 c 0.13147,0.0317 0.2672,0.066 0.39928,0.0951 -0.13695,-0.0304 -0.26294,-0.062 -0.39928,-0.0951 z m 8.50176,0.0572 c -0.16495,0.0408 -0.32807,0.0788 -0.49423,0.11413 0.16616,-0.0353 0.32928,-0.0736 0.49423,-0.11413 z m -7.51269,0.17116 c 0.0548,0.0104 0.11565,0.009 0.17104,0.0189 -0.0548,-0.01 -0.11626,-0.009 -0.17104,-0.0189 z m 6.52362,0.0377 c 0.0304,-0.006 0.0487,0.006 0.0761,0 -0.0487,0.009 -0.10165,0.0103 -0.15217,0.0189 0.0304,-0.006 0.0487,-0.014 0.0761,-0.0189 z m -6.20042,0.0189 c 0.0548,0.009 0.11565,0.01 0.17103,0.0189 -0.0548,-0.009 -0.11564,-0.01 -0.17103,-0.0189 z m 5.85835,0.0377 c 0.0304,-0.006 0.0676,0.006 0.095,0 -0.0548,0.009 -0.11564,0.0103 -0.17103,0.0189 0.0304,-0.006 0.0487,-0.0146 0.0761,-0.0189 z m -5.34464,0.0377 c 0.0548,0.008 0.0962,0.0116 0.15216,0.0189 -0.0487,-0.007 -0.10225,-0.0116 -0.15216,-0.0189 z m 5.09752,0 c 0.0243,-0.006 0.0548,0.006 0.0761,0 -0.0548,0.009 -0.0968,0.0109 -0.15217,0.0189 0.0304,-0.006 0.0487,-0.0152 0.0761,-0.0189 z m -0.41875,0.0572 c 0.0304,-0.006 0.0676,0.006 0.095,0 -0.0548,0.007 -0.11504,0.0128 -0.17104,0.0189 -0.0548,0.007 -0.11503,0.0134 -0.17103,0.0189 0.0548,-0.006 0.11565,-0.0128 0.17103,-0.0189 0.0304,-0.006 0.0487,-0.0158 0.0761,-0.0189 z m -3.42371,0.0761 c 0.0548,0.006 0.0962,0.0152 0.15216,0.0189 -0.0487,-0.006 -0.10165,-0.0152 -0.15216,-0.0189 z m 0.32319,0.0189 c 0.0548,0.006 0.11565,0.0164 0.17165,0.0189 -0.0548,0 -0.11565,-0.0158 -0.17165,-0.0189 z m 2.01649,0 c 0.0304,0 0.0487,0 0.0761,0 -0.0487,0.006 -0.10165,0.0164 -0.15217,0.0189 0.0304,0 0.0487,-0.0177 0.0761,-0.0189 z m -1.59773,0.0189 c 0.0548,0 0.11504,0.0177 0.17104,0.0189 -0.0548,0 -0.11504,-0.017 -0.17104,-0.0189 z m 1.10289,0 c 0.0304,0 0.0487,0 0.0761,0 -0.0548,0 -0.11504,0.0177 -0.17104,0.0189 0.0304,-6.1e-4 0.0676,-0.0183 0.0949,-0.0189 z m 131.12844,1.33144 c -0.0426,0.0688 -0.0718,0.14067 -0.11443,0.20926 0.0426,-0.0666 0.0736,-0.14242 0.11443,-0.20926 z m -3.67083,5.28774 c -0.0724,0.0914 -0.13634,0.1944 -0.20938,0.28534 0.073,-0.0913 0.13695,-0.1935 0.20938,-0.28534 z m -0.53257,0.68474 c -0.0682,0.0833 -0.1406,0.16446 -0.20938,0.2473 0.07,-0.0847 0.13938,-0.16209 0.20938,-0.2473 z"
     id="path2436"
     inkscape:connector-curvature="0" />
</svg>
