<?xml version="1.0" encoding="UTF-8" standalone="no"?>
<!-- Created with Inkscape (http://www.inkscape.org/) -->

<svg
   xmlns:dc="http://purl.org/dc/elements/1.1/"
   xmlns:cc="http://creativecommons.org/ns#"
   xmlns:rdf="http://www.w3.org/1999/02/22-rdf-syntax-ns#"
   xmlns:svg="http://www.w3.org/2000/svg"
   xmlns="http://www.w3.org/2000/svg"
   xmlns:sodipodi="http://sodipodi.sourceforge.net/DTD/sodipodi-0.dtd"
   xmlns:inkscape="http://www.inkscape.org/namespaces/inkscape"
   id="svg1376"
   sodipodi:version="0.32"
   inkscape:version="0.91 r13725"
   width="500"
   height="500"
   sodipodi:docname="3.svg"
   version="1.0">
  <metadata
     id="metadata1381">
    <rdf:RDF>
      <cc:Work
         rdf:about="">
        <dc:format>image/svg+xml</dc:format>
        <dc:type
           rdf:resource="http://purl.org/dc/dcmitype/StillImage" />
        <dc:title></dc:title>
      </cc:Work>
    </rdf:RDF>
  </metadata>
  <defs
     id="defs1379" />
  <sodipodi:namedview
     inkscape:window-height="1008"
     inkscape:window-width="958"
     inkscape:pageshadow="2"
     inkscape:pageopacity="0.0"
     borderopacity="1.0"
     bordercolor="#666666"
     pagecolor="#ffffff"
     id="base"
     showguides="true"
     inkscape:guide-bbox="true"
     inkscape:zoom="0.5330295"
     inkscape:cx="-63.4658"
     inkscape:cy="343.71782"
     inkscape:window-x="953"
     inkscape:window-y="0"
     inkscape:current-layer="svg1376"
     showgrid="false"
     units="px"
     inkscape:window-maximized="0" />
  <path
     inkscape:connector-curvature="0"
     style="opacity:1;fill:#000000;fill-opacity:1;fill-rule:evenodd;stroke:none;stroke-width:1px;stroke-linecap:butt;stroke-linejoin:miter;stroke-opacity:1"
     d="m 267.67006,21.946701 c -0.0481,0.0065 -0.088,0.01859 -0.13341,0.01905 -0.28293,9.25e-4 -0.57501,-0.0037 -0.85789,0 -0.14029,0.0019 -0.27908,-0.0028 -0.41939,0 -0.13969,0.0028 -0.27963,-0.0028 -0.41939,0 -0.13915,0.0028 -0.28025,-0.0037 -0.41939,0 -35.48214,0.875767 -70.12885,19.249505 -90.58906,48.001544 -4.74269,6.732829 -8.40655,14.213367 -12.35306,21.465343 -1.12625,-0.457204 -2.35137,-0.705345 -3.6411,-0.705345 -5.35991,0 -9.70325,4.343341 -9.70325,9.703247 0,2.04379 0.61685,3.94437 1.69663,5.50931 -4.87753,3.32864 -10.15775,6.17668 -14.67878,10.00826 -10.06411,7.54428 -26.60167,14.77692 -33.17025,25.64023 -1.94634,4.63728 1.21223,10.6117 6.44342,10.88517 10.91783,2.61856 28.30766,1.01292 39.40396,1.75383 6.66647,0.0447 13.48174,0.22761 20.24529,0.81973 -1.78611,1.8096 -3.51836,3.65045 -5.18523,5.50931 -6.29954,7.51152 -14.53065,14.64426 -16.56606,24.62986 -0.33033,5.03592 1.04669,9.78315 2.8595,14.4119 -1.11483,1.46932 -2.37913,3.49167 -4.0033,6.25278 -6.06874,10.31684 -1.82735,21.83688 9.70325,27.29873 1.05371,0.49913 2.41088,1.00581 4.0033,1.46788 -3.20097,8.58451 -7.27568,18.71686 -2.2876,27.41311 4.57563,8.18722 13.43596,12.02807 22.57102,13.05841 -1.12437,13.50808 -4.77602,57.2932 -5.29962,63.5763 -0.60686,7.28249 -1.81403,13.35998 -6.06214,20.03558 -0.47439,0.74551 -1.44105,2.68205 -3.16452,5.26149 -1.68382,2.52015 -5.14723,2.02553 -12.16242,2.17323 -14.57437,0.30685 -18.25108,16.8623 -12.60089,24.87768 2.94765,4.18156 4.42609,7.19377 3.4886,9.22667 -0.91028,1.97394 -11.58942,19.90322 -16.89014,29.01443 -1.94276,2.6266 -4.35998,1.28978 -11.68584,1.44882 -18.469153,0.40096 -21.301703,30.12541 -3.54579,36.48727 5.85559,2.09805 8.79422,-2.92668 10.19891,-5.83339 1.24122,-2.56844 56.36232,-97.20393 58.48638,-100.84517 4.24813,-7.28246 6.67849,-15.15825 7.89223,-23.0476 0.93128,-6.05326 3.29656,-44.9461 4.34645,-62.73752 4.84879,-1.00677 9.11416,-3.43134 12.92493,-6.51967 29.57084,-9.61723 93.29352,-22.51514 112.1879,-21.37003 -5e-5,7.28248 4.84222,16.39449 1.20096,16.39449 -25.48865,3.03436 -103.82076,15.09644 -105.59191,23.06667 -1.21378,5.46185 -5.45224,39.42921 -1.81105,44.28418 2.1232,2.83094 28.52702,-8.49252 63.11881,-13.95438 34.59179,-5.46186 53.39644,-7.89223 53.39644,-7.89223 0,1e-5 4.23854,9.72534 1.81105,13.97344 -49.7636,10.31688 -123.17785,24.87124 -124.99848,27.29873 -1.81349,2.41804 -74.68264,127.07478 -74.65209,128.04859 77.07293,-24.27493 111.05444,1.21745 171.74181,-13.95438 60.68737,-15.17181 98.92939,-47.9346 97.10875,-53.39646 -1.82062,-5.46186 -54.62284,-97.10534 -55.8366,-103.78094 -1.30724,-7.18983 -17.71953,-60.91858 -6.67218,-75.26215 5.91379,-7.67827 24.35827,-5.75784 37.51669,-3.46952 6.52107,0.23543 14.90804,-2.82091 15.89884,-10.08452 1.13862,-17.14635 -13.03488,-31.30673 -10.86612,-48.59251 1.58437,-10.04518 4.09726,-20.08417 5.22337,-30.23448 2.98565,-21.24248 2.09965,-44.01892 -8.69289,-63.042527 C 362.3692,50.735378 336.32079,33.396282 308.4085,26.845972 c -13.11792,-3.413123 -26.66492,-4.984893 -40.2237,-4.899287 -0.1076,6.1e-4 -0.21583,-0.0046 -0.3241,0 -0.003,1.38e-4 -0.0158,-1.9e-5 -0.019,0 -0.0127,-1.94e-4 -0.0256,-10e-6 -0.0381,0 -0.002,4.6e-5 -0.0152,4.6e-5 -0.019,0 -0.007,1.38e-4 -0.0312,3.23e-4 -0.0381,0 -0.003,0 -0.0165,-9.3e-5 -0.019,0 -0.0155,9.24e-4 -0.0411,-0.0019 -0.0572,0 z m -0.24779,9.760442 c 0.0141,-0.0018 0.024,9.25e-4 0.0381,0 0.003,-9.2e-5 0.0167,0 0.019,0 0.007,3.24e-4 0.031,1.39e-4 0.0381,0 0.0157,-5.17e-4 0.0412,-2.49e-4 0.0572,0 0.003,-2.7e-5 0.0158,1.39e-4 0.019,0 0.1045,-0.0046 0.21845,5.55e-4 0.32411,0 13.31336,-0.06916 26.63655,1.464148 39.46115,4.956478 23.90058,5.819863 49.50148,22.631929 56.99945,36.315705 7.36223,13.436129 5.79574,27.908494 -4.67056,31.702364 -24.91285,9.03056 -35.86504,-25.541717 -73.43205,-21.846608 -37.01928,3.641242 -55.82302,23.659958 -78.88418,46.114268 -7e-5,0.002 -7e-5,0.0173 0,0.0191 1.7e-4,0.002 1.2e-4,0.0152 0,0.019 -7e-5,0.002 0,0.0173 0,0.019 0.005,0.0103 0.0164,0.0331 0.019,0.0381 1.16205,1.28437 33.09558,4.53308 67.33178,17.51923 34.44887,13.06679 32.31243,39.78843 97.66157,42.32066 2.87225,8.60209 7.40573,16.70634 8.33072,25.83084 1.02655,3.21212 -3.24944,3.74038 -5.414,3.67924 -12.84431,-2.15154 -25.82576,-3.48351 -38.87022,-4.0605 -17.45575,-1.90501 -31.42062,-3.37087 -48.93562,-4.65146 -12.44913,-0.39134 -25.52257,-5.74679 -35.24818,-13.78281 -10.90833,-7.90618 -17.60027,-18.84812 -26.63148,-28.49972 -15.444,-15.90634 -38.57939,-21.06424 -60.08771,-22.41851 -15.31066,-1.43478 -30.7645,0.49682 -46.01896,-1.02942 6.0708,-7.52287 13.58296,-13.6863 21.3319,-19.36837 6.67831,-5.63263 14.91713,-9.24682 21.37004,-15.041 0.007,-0.004 0.03,-0.015 0.0381,-0.019 0.004,-0.005 0.0176,-0.0175 0.019,-0.0191 3.56664,-1.35677 6.12564,-4.73991 6.25278,-8.75008 4.24939,-7.403996 7.73601,-15.296897 12.46744,-22.456634 18.51944,-28.107439 51.68858,-45.912315 85.30854,-46.552736 0.0513,-6.11e-4 0.0865,-0.01313 0.13341,-0.01905 0.005,4.6e-5 0.018,4.6e-5 0.0191,0 0.004,-2.8e-5 0.0165,-1.11e-4 0.019,0 0.003,4.6e-5 0.0167,4.6e-5 0.019,0 0.0181,-5.83e-4 0.0579,2.86e-4 0.0763,0 0.004,4.6e-5 0.0171,4.6e-5 0.019,0 0.0161,2.7e-5 0.0412,-1.76e-4 0.0572,0 0.004,-4.7e-5 0.0153,1.66e-4 0.019,0 0.005,-2.22e-4 0.0142,9.2e-5 0.0191,0 0.0283,-2.8e-5 0.065,6.1e-4 0.0953,0 0.16197,-0.0037 0.33338,9.24e-4 0.49565,0 0.0446,-4.07e-4 0.0912,-0.01295 0.13347,-0.01905 z m -66.14986,64.12915 c -5.18627,0.197338 -9.322,4.468977 -9.32199,9.703257 0,5.3599 4.34335,9.7223 9.70325,9.72231 5.35989,0 9.70323,-4.3624 9.70323,-9.72231 0,-5.35991 -4.34334,-9.703257 -9.70323,-9.703257 -0.12562,0 -0.25679,-0.0049 -0.38126,0 z m 37.26884,10.065457 c 0.0191,-0.002 0.0381,0.002 0.0572,0 0.003,-9e-5 0.0166,-3e-5 0.019,0 0.007,3.5e-4 0.031,2.3e-4 0.0381,0 0.003,-8e-5 0.0167,-3e-5 0.019,0 0.007,3.3e-4 0.031,2.1e-4 0.0381,0 0.003,-7e-5 0.0166,-3e-5 0.019,0 0.007,3.1e-4 0.0309,1.9e-4 0.0381,0 0.0592,-0.005 0.11218,0.004 0.17159,0 0.004,5e-5 0.0171,7e-5 0.019,0 0.0244,-3.4e-4 0.0549,-2.3e-4 0.0763,0 0.004,4e-5 0.0165,1.3e-4 0.0191,0 0.16544,-0.008 0.32813,0 0.49564,0 5.35989,0 9.70323,4.34335 9.70323,9.70325 0,5.3599 -4.34334,9.70325 -9.70323,9.70325 -5.35994,0 -9.70328,-4.34335 -9.70328,-9.70325 0,-5.01237 3.81579,-9.1875 8.69289,-9.70325 z m 47.88716,13.95438 c 0.019,-0.002 0.0382,0.002 0.0572,0 0.003,-10e-5 0.0166,-2e-5 0.019,0 0.007,3.7e-4 0.031,2.4e-4 0.0381,0 0.003,-9e-5 0.0167,-2e-5 0.0191,0 0.007,3.5e-4 0.031,2.3e-4 0.0381,0 0.003,-8e-5 0.0167,-2e-5 0.0191,0 0.007,3.3e-4 0.031,2.1e-4 0.0381,0 0.0589,-0.005 0.11248,0.005 0.1716,0 0.004,4e-5 0.0171,7e-5 0.019,0 0.0243,-3.6e-4 0.0549,-2.4e-4 0.0763,0 0.004,4e-5 0.0165,1.3e-4 0.0191,0 0.0301,-0.002 0.0668,-2.8e-4 0.0953,0 0.004,3e-5 0.0165,1.2e-4 0.019,0 0.14494,-0.006 0.29189,0 0.43842,0 5.35995,0 9.70328,4.34335 9.70328,9.70325 0,5.3599 -4.34333,9.72232 -9.70328,9.72232 -5.35989,0 -9.70322,-4.36242 -9.70322,-9.72232 0,-4.99327 3.7854,-9.16173 8.63567,-9.70325 z m 41.82501,23.0476 c 0.002,1e-5 0.0171,-8e-5 0.0191,0 0.006,-4.7e-4 0.0314,-1.6e-4 0.0381,0 0.0102,4.5e-4 0.0292,-8e-5 0.0381,0 0.14281,-9.3e-4 0.27805,0.019 0.41939,0.019 5.35988,0 9.70323,4.34335 9.70323,9.70325 0,5.3599 -4.34335,9.70325 -9.70323,9.70325 -5.35988,0 -9.72231,-4.34335 -9.72231,-9.70325 0,-5.0711 3.90527,-9.26831 8.86443,-9.70325 9.2e-4,-1.1e-4 0.015,-4e-5 0.019,0 0.003,1e-5 0.0155,2e-5 0.019,0 0.003,2e-5 0.0166,6e-5 0.0191,0 0.004,6e-5 0.0171,8e-5 0.019,0 0.0243,-4.2e-4 0.0549,-2.8e-4 0.0763,0 0.004,5e-5 0.0165,1.7e-4 0.019,0 0.004,4e-5 0.0171,8e-5 0.019,0 0.0243,-3.6e-4 0.0549,-2.4e-4 0.0763,0 0.004,4e-5 0.0166,1.4e-4 0.0191,0 0.002,8e-5 0.0174,0 0.019,0 0.006,-0.004 0.0315,-0.0157 0.0381,-0.019 z m -149.01825,15.38413 7.16781,13.78281 25.88805,-3.39328 c 0.61235,0.42292 1.22872,0.84849 1.83008,1.29631 11.51623,9.10923 17.31704,24.32703 28.63318,33.57057 0.40358,0.37483 0.81255,0.7424 1.22004,1.10568 -9.54839,13.61451 -19.45401,26.97361 -29.66258,40.1093 -6.75319,7.93266 -13.06327,18.17371 -23.96265,20.53125 -8.28398,0.70436 -18.31535,0.17833 -23.63856,-7.11064 -4.23808,-7.07384 0.80654,-14.71498 2.97388,-21.71316 18.0465,1.89038 44.01389,-3.01494 38.98458,-35.47692 -11.5306,15.77871 -30.32966,16.98944 -33.97092,-4.25113 1e-5,0 -9.1057,-0.003 -15.17443,-0.61002 -0.0885,-0.009 -0.18039,-0.0104 -0.26689,-0.019 -1.23403,-3.24587 -2.13349,-6.58339 -2.15416,-10.10358 2.91647,-7.32287 8.80292,-13.01613 13.97345,-18.87273 2.11993,-2.32872 5.8393,-6.58235 8.15912,-8.84539 z m 80.67614,59.87801 c 5.87859,6.78128 11.71649,13.5978 17.59545,20.37873 -12.19427,2.338 -24.38457,4.69677 -36.58256,7.01532 6.03781,-8.69409 12.05964,-17.39926 18.0911,-26.09774 0.29867,-0.4321 0.59733,-0.86421 0.89601,-1.29631 z m 22.49476,127.0001 c 0.041,-0.003 0.0924,0.003 0.13341,0 0.0413,-0.003 0.0731,0.002 0.11438,0 0.0415,-0.002 0.0919,0.002 0.13348,0 0.0417,-0.002 0.0916,0.002 0.13341,0 0.25676,-0.01 0.50346,0 0.76253,0 11.05486,0 20.03563,8.96173 20.03563,20.01653 0,11.05483 -8.98083,20.03559 -20.03563,20.03559 -11.05479,4e-5 -20.01652,-8.98078 -20.01652,-20.03559 0,-10.62799 8.276,-19.35998 18.73931,-20.01653 z m 29.20507,16.39449 c 0.36784,0.25889 12.14955,8.58407 13.34435,15.15538 1.21371,6.67561 1.81087,26.70131 5.45212,29.12881 3.64125,2.42749 16.99817,3.64068 15.78446,14.56441 -1.21377,10.92375 -7.28196,15.775 -14.56441,13.95437 -7.2825,-1.8206 -18.19492,-3.03436 -45.50427,0 -27.30928,3.03439 -50.99091,13.96069 -61.30776,15.17444 -10.31678,1.21376 -16.37241,-10.91659 -12.1243,-20.62656 4.24817,-9.70994 13.33478,-5.46145 15.15541,-10.92331 1.82062,-5.46182 4.26317,-33.99256 21.25561,-49.1644 5.46188,11.53062 13.95438,17.59548 13.95438,17.59548 0,4e-5 -17.59246,32.15975 -13.34435,35.80099 4.2481,3.64127 57.03428,-3.02133 60.06868,-8.48319 3.0344,-5.46184 -7.28221,-29.12882 -7.28221,-29.12882 0,0 5.46475,-5.46144 7.89224,-10.9233 2.35165,-5.29114 1.28892,-11.72757 1.22005,-12.1243 z"
     id="path2250" />
</svg>
