<?xml version="1.0" encoding="UTF-8" standalone="no"?>
<!-- Created with Inkscape (http://www.inkscape.org/) -->

<svg
   xmlns:dc="http://purl.org/dc/elements/1.1/"
   xmlns:cc="http://creativecommons.org/ns#"
   xmlns:rdf="http://www.w3.org/1999/02/22-rdf-syntax-ns#"
   xmlns:svg="http://www.w3.org/2000/svg"
   xmlns="http://www.w3.org/2000/svg"
   xmlns:sodipodi="http://sodipodi.sourceforge.net/DTD/sodipodi-0.dtd"
   xmlns:inkscape="http://www.inkscape.org/namespaces/inkscape"
   id="svg1376"
   sodipodi:version="0.32"
   inkscape:version="0.91 r13725"
   width="500"
   height="500"
   sodipodi:docname="4.svg"
   version="1.0">
  <metadata
     id="metadata1381">
    <rdf:RDF>
      <cc:Work
         rdf:about="">
        <dc:format>image/svg+xml</dc:format>
        <dc:type
           rdf:resource="http://purl.org/dc/dcmitype/StillImage" />
        <dc:title></dc:title>
      </cc:Work>
    </rdf:RDF>
  </metadata>
  <defs
     id="defs1379" />
  <sodipodi:namedview
     inkscape:window-height="1008"
     inkscape:window-width="958"
     inkscape:pageshadow="2"
     inkscape:pageopacity="0.0"
     borderopacity="1.0"
     bordercolor="#666666"
     pagecolor="#ffffff"
     id="base"
     showguides="true"
     inkscape:guide-bbox="true"
     inkscape:zoom="0.5330295"
     inkscape:cx="-63.4658"
     inkscape:cy="343.71782"
     inkscape:window-x="953"
     inkscape:window-y="0"
     inkscape:current-layer="svg1376"
     showgrid="false"
     units="px"
     inkscape:window-maximized="0" />
  <path
     inkscape:connector-curvature="0"
     style="opacity:1;fill:#000000;fill-opacity:1;fill-rule:evenodd;stroke:#000000;stroke-width:0.62721223px;stroke-linecap:butt;stroke-linejoin:miter;stroke-opacity:1"
     d="m 337.45803,21.473769 c -0.0479,0.0056 -0.0836,0.01806 -0.13717,0.01957 -20.70778,0.598906 -34.94468,22.254154 -71.34538,22.795237 -33.4486,0.497198 -51.57441,-20.390769 -76.77471,-15.876302 -12.113,2.169966 -15.85257,7.957309 -16.50351,22.344428 -1.63605,-0.323798 -3.22725,-0.478751 -4.7629,-0.450809 -15.86188,0.288606 -25.87792,18.396793 -20.9332,33.751862 -12.24292,11.546481 -24.9002,24.986885 -35.7903,37.828735 15.08729,19.96513 39.26231,32.6932 64.74005,32.02703 0.85619,16.55975 1.57928,29.71957 0.29401,39.23996 -1.56178,11.56864 0.98317,21.39574 11.27022,22.08963 0.38468,10.95802 -1.0335,18.7079 -6.23292,23.61846 -7.94183,7.50062 -15.00184,14.10982 -19.85518,19.40438 -4.85335,5.29455 -6.17698,11.04011 0,21.18801 0.70049,1.1508 1.33407,2.38803 1.90123,3.70447 -10.73485,9.31087 -16.47341,24.73997 -16.0331,33.79106 0.32822,6.74733 5.66471,14.25005 15.07269,17.09153 -1.47049,9.68321 -1.25541,18.42288 3.01845,24.83368 5.29455,7.94181 12.80046,12.79905 30.89021,12.79905 2.44149,0 4.77258,0.17145 6.97774,0.45081 -11.86986,50.94291 -24.63769,106.33207 -24.63769,106.33207 -1e-5,-2e-5 180.45068,-30.45573 180.89192,-37.51513 0.33481,-5.35714 -5.73372,-56.46175 -4.41012,-71.46299 1.30297,-14.76686 4.74041,-31.2598 -5.2529,-30.9294 -0.15862,0.005 -0.30495,0.0254 -0.47041,0.0392 -0.20133,0.0168 -0.4339,0.0347 -0.68598,0.0588 4.57325,-10.92661 10.22632,-16.98477 20.97241,-30.06699 20.29577,-24.7079 23.3873,-47.65628 14.56305,-73.24662 -0.50033,-1.45104 -1.08263,-2.88701 -1.72484,-4.31208 13.13615,-84.56651 -22.35697,-205.46211 -37.53469,-208.783268 -2.46018,-0.538329 -4.81141,-0.785715 -7.07577,-0.764414 -0.0959,6.27e-4 -0.19971,-0.0038 -0.29398,0 -0.0206,6.27e-4 -0.0568,-6.28e-4 -0.0784,0 -0.0171,0.0013 -0.0428,-0.0019 -0.0588,0 z M 170.28641,60.537323 c 0.0349,-0.0019 0.0631,0.0019 0.098,0 0.004,-2.26e-4 0.0154,8.7e-5 0.0196,0 0.0162,5e-5 0.0426,-1.51e-4 0.0588,0 0.004,-5e-5 0.0152,1.69e-4 0.0196,0 1.66685,-0.06541 3.42633,0.334323 5.19409,1.274024 11.49979,6.113024 5.15943,20.085599 -4.25327,26.480121 1.19051,17.405852 3.06769,32.150142 4.58648,49.530172 -18.80906,1.06086 -36.11841,-5.33781 -48.96174,-18.54196 7.9664,-8.6458 24.01864,-24.836214 32.45823,-33.046252 -4.67483,-11.642914 1.88572,-25.141455 10.78021,-25.696105 z m 181.06832,2.508848 c 0.003,-6.9e-5 0.0178,-6e-6 0.0196,0 0.002,0.0019 0.0179,0.01781 0.0196,0.01957 -1.2e-4,0.0013 -6e-5,0.01518 0,0.01957 0.53263,0.880047 4.59596,13.749688 9.66296,30.851005 -13.01572,13.236384 -72.80202,22.275124 -112.29055,13.230254 -8.82425,21.84004 -25.80276,48.54056 -59.99678,48.09934 0,0 -0.66181,-20.07047 0,-31.32141 7.50063,-3.30909 30.43909,-15.01674 41.69003,-51.196202 21.17819,6.17698 71.47929,14.34391 120.89514,-9.702188 z M 266.11265,201.50327 c 4.024,-0.0447 8.15551,0.0583 12.38744,0.33321 -4.11351,14.23844 -11.05443,36.66902 -18.24792,52.92103 -11.91277,26.91397 -25.16689,45.88449 -25.16689,45.88449 0,1e-5 8.60748,9.27099 19.42394,9.27098 11.03034,0 21.61925,-6.17412 21.61925,-6.17412 0,-2e-5 5.72865,10.14263 14.11228,14.11228 4.35756,2.0633 11.46575,1.41705 19.56118,-2.86166 l 26.69571,18.46356 c -1.02486,2.18403 -2.01046,4.53063 -2.95969,7.05614 -23.38666,3.14029 -66.86188,9.75302 -104.23482,17.89515 2.95925,-11.62072 6.03391,-24.53668 5.80171,-27.32294 -32.20853,27.79638 -38.3914,26.02972 -50.74536,25.14729 -12.35397,-0.88245 -12.35865,-8.39529 -11.03501,-15.89591 0.19952,-1.1307 0.63109,-2.92365 1.19562,-5.1941 13.86824,-0.57589 34.25069,-4.30336 45.13965,-18.62036 -9.70667,-3.08851 -10.14597,-8.80128 -8.38896,-20.30599 1.61056,-10.5455 -7.93624,-21.38928 -26.9505,-20.97241 -1.26763,0.0278 -2.56886,0.10388 -3.92008,0.2352 -1.83364,0.1782 -3.59574,0.53197 -5.2921,1.03882 -3.13921,-5.9166 -3.42049,-8.99446 1.76403,-15.15109 4.80527,-5.70626 13.06983,-13.23998 18.42437,-20.81561 3.03922,4.24089 6.79892,9.05404 8.91814,10.2314 3.97095,2.20606 28.22336,-5.7325 30.87064,-7.05613 2.64727,-1.32364 3.97884,-6.62494 3.97884,-6.62493 L 200.5102,217.63439 c -0.0912,-1.47795 -0.21651,-2.9687 -0.3528,-4.42969 14.23163,-3.76367 37.34935,-11.38368 65.95525,-11.70143 z m 24.18687,1.54843 c 1.15181,0.1621 2.30525,0.33874 3.4693,0.52921 37.00858,6.05595 66.31244,29.5574 78.14668,40.37679 4.9716,13.11608 5.95889,24.24703 -2.25401,41.2392 -7.65268,15.83316 -17.36832,23.30105 -26.00974,35.8099 l -22.75601,-13.83787 c 4.06277,-3.60016 8.17583,-8.09975 12.15223,-13.58306 10.81013,-14.90683 14.73924,-46.21996 0,-52.94063 -12.67821,-5.78088 -28.86492,-1.04846 -29.12616,1.76403 -0.50973,5.48699 -1.32874,16.32099 -10.15299,29.55737 -8.82425,13.2364 -23.82466,28.23619 -44.12049,24.26528 16.75829,-24.95917 33.79312,-68.36339 40.65119,-93.18022 z m 26.85252,51.1374 c 0.0568,-0.003 0.11936,0.002 0.17644,0 0.0876,-0.003 0.16646,0.002 0.25477,0 7.58399,-0.16291 17.75505,4.37622 15.01388,17.77754 -3.94278,19.27612 -28.51556,38.33467 -39.71036,31.77222 -6.39757,-3.75032 -0.0263,-15.54468 6.80136,-24.85328 6.49761,-8.8585 9.70166,-19.22786 10.40777,-21.48202 0.56782,-1.81248 3.48254,-3.05032 7.05614,-3.21446 z m -134.20379,33.61465 c 0.0594,-0.003 0.11699,0.002 0.1764,0 0.0792,-0.003 0.15582,0.002 0.23521,0 0.10585,-0.003 0.20653,0.002 0.3136,0 0.14277,-0.003 0.28628,0.002 0.43121,0 0.19325,-0.003 0.39241,0.003 0.58801,0 0.2608,-0.003 0.51951,0.002 0.78402,0 4.15067,-0.0303 8.71616,0.16682 11.4074,3.48887 0.39006,7.49936 -1.44221,15.76279 1.88164,22.95205 -9.10229,3.92367 -20.24438,7.16829 -30.67457,5.3117 -3.67166,0.0555 -7.09089,-2.56648 -7.07574,-6.40932 1.72303,-11.34386 9.36625,-23.40479 21.40361,-25.3237 0.17187,0.002 0.35105,-0.0125 0.52921,-0.0196 z m 108.82133,88.73093 c 0.002,-2e-4 0.0157,-7e-5 0.0196,0 0.0166,1.3e-4 0.0427,-2.3e-4 0.0588,0 0.002,-5e-5 0.0157,-6e-5 0.0196,0 0.004,5e-5 0.0176,6e-5 0.0196,0 0.0167,1e-4 0.0426,-2.1e-4 0.0588,0 0.002,-5e-5 0.0157,-5e-5 0.0196,0 0.002,-1.5e-4 0.0156,-5e-5 0.0196,0 0.0131,7e-5 0.0266,-1.8e-4 0.0392,0 0.004,4e-5 0.0179,1.1e-4 0.0196,0 0.17393,-0.0115 0.30853,-0.004 0.41158,0 4.18852,0.19036 10.09072,8.58834 7.48735,20.7372 -2.64728,12.35394 -8.85486,17.86395 -13.66144,18.97317 -5.73579,1.32364 -79.41955,17.20995 -82.06683,15.4451 -2.64727,-1.76486 5.32083,-38.99381 9.25138,-39.71037 3.98757,-0.72698 69.77291,-14.65707 78.30356,-15.4451 z m -22.42284,10.1334 c -6.57582,0.53336 -11.76023,6.08774 -11.76023,12.79904 0,7.06293 5.73611,12.79904 12.79902,12.79905 7.06297,-10e-6 12.79908,-5.73611 12.79908,-12.79905 0,-7.06294 -5.73611,-12.79903 -12.79908,-12.79904 -0.0276,-2e-5 -0.0508,-1.8e-4 -0.0784,0 -0.13717,6.2e-4 -0.27541,-0.005 -0.41158,0 -0.0534,0.002 -0.10355,-0.003 -0.1568,0 -0.0528,0.002 -0.10418,-0.003 -0.1568,0 -0.0196,3.9e-4 -0.0588,-4.9e-4 -0.0784,0 -0.0196,4.3e-4 -0.0589,-5.3e-4 -0.0784,0 -0.0258,0.002 -0.0526,-0.002 -0.0784,0 z"
     id="path2184"
     inkscape:export-xdpi="4.4610724"
     inkscape:export-ydpi="4.4610724" />
</svg>
