<?xml version="1.0" encoding="UTF-8" standalone="no"?>
<!-- Created with Inkscape (http://www.inkscape.org/) -->

<svg
   xmlns:dc="http://purl.org/dc/elements/1.1/"
   xmlns:cc="http://creativecommons.org/ns#"
   xmlns:rdf="http://www.w3.org/1999/02/22-rdf-syntax-ns#"
   xmlns:svg="http://www.w3.org/2000/svg"
   xmlns="http://www.w3.org/2000/svg"
   xmlns:sodipodi="http://sodipodi.sourceforge.net/DTD/sodipodi-0.dtd"
   xmlns:inkscape="http://www.inkscape.org/namespaces/inkscape"
   id="svg1376"
   sodipodi:version="0.32"
   inkscape:version="0.91 r13725"
   width="500"
   height="500"
   sodipodi:docname="5.svg"
   version="1.0">
  <metadata
     id="metadata1381">
    <rdf:RDF>
      <cc:Work
         rdf:about="">
        <dc:format>image/svg+xml</dc:format>
        <dc:type
           rdf:resource="http://purl.org/dc/dcmitype/StillImage" />
        <dc:title></dc:title>
      </cc:Work>
    </rdf:RDF>
  </metadata>
  <defs
     id="defs1379" />
  <sodipodi:namedview
     inkscape:window-height="1008"
     inkscape:window-width="958"
     inkscape:pageshadow="2"
     inkscape:pageopacity="0.0"
     borderopacity="1.0"
     bordercolor="#666666"
     pagecolor="#ffffff"
     id="base"
     showguides="true"
     inkscape:guide-bbox="true"
     inkscape:zoom="0.5330295"
     inkscape:cx="-63.4658"
     inkscape:cy="343.71782"
     inkscape:window-x="953"
     inkscape:window-y="0"
     inkscape:current-layer="svg1376"
     showgrid="false"
     units="px"
     inkscape:window-maximized="0" />
  <path
     style="opacity:1;fill:#000000;fill-opacity:1;fill-rule:evenodd;stroke:none;stroke-width:1px;stroke-linecap:butt;stroke-linejoin:miter;stroke-opacity:1"
     d="m 254.32624,26.956931 c 0,0.0043 0,0.01804 0,0.01902 0,-1.1e-5 -0.0183,8.7e-5 -0.0183,0 0,-1.1e-5 -0.0183,3.3e-5 -0.0183,0 -16.21472,0.272657 -33.55253,5.676965 -47.03004,18.148543 l 27.24172,28.252252 c -4.2922,4.4223 -7.05201,10.326742 -7.45402,16.871282 -26.7177,4.373174 -52.54719,15.183972 -67.65648,21.827822 -3.04548,-4.16241 -7.94809,-6.88195 -13.49703,-6.88196 -9.23831,0 -16.73783,7.49952 -16.73783,16.73783 0,4.18763 1.53637,8.02387 4.0796,10.96157 -6.39005,9.98097 -23.51227,37.08437 -22.11377,38.83254 1.70895,2.13622 15.75477,8.09608 29.85359,7.30136 0.52244,11.8214 -0.18832,35.12582 -6.67225,58.77307 -7.29517,26.60604 -4.29447,50.63608 6.86288,84.96645 9.42859,29.01095 5.06739,44.23831 -7.64447,57.32424 -14.60046,1.99033 -22.39151,1.91564 -34.486059,-0.32409 -14.04545,-2.601 -18.32234,5.53665 -16.985639,15.78465 1.820651,13.95827 -3.027301,37.62742 -20.626812,62.50954 43.08854,21.84772 109.32353,8.50931 109.84449,1.22007 0.34651,-4.85298 -5.98285,-31.11322 -12.2961,-52.50114 10.70453,-4.06373 30.05545,-11.22847 33.53265,-11.22847 4.85526,-1e-5 52.18363,15.77808 53.39759,21.84689 1.21337,6.0688 -2.42794,48.55168 0,51.58609 2.42733,3.03442 14.13695,3.33514 16.39469,0.61004 2.64146,-3.18859 -0.51364,-48.0539 2.64938,-52.93961 3.5559,-5.49144 38.91536,-15.63217 43.77002,-15.63215 3.47781,0 24.65884,4.11456 35.36313,8.17829 -6.31326,21.38792 -13.86244,47.05717 -13.51594,51.91017 0.52036,7.28923 64.92603,22.43868 108.01403,0.59096 -9.70992,-30.34404 -16.28855,-45.6016 -15.76513,-60.08845 0.55269,-15.3069 -1.72031,-21.41675 -15.76576,-18.81576 -14.20283,2.63013 -30.2071,1.69862 -50.69025,-0.28596 -20.33125,-1.96986 -26.0979,-9.10594 -29.73921,-11.53348 -3.6413,-2.42753 -6.36693,-40.35763 -6.36693,-40.35763 0,0 -2.06253,1.08459 -2.21138,1.16288 18.41513,-31.68675 24.4557,-45.57997 16.66127,-62.73829 -9.30973,-20.49493 -8.07625,-32.0393 -1.33414,-63.21489 3.75598,-17.37107 23.98902,-51.88786 25.96431,-64.12995 2.98917,-18.5238 4.79488,-17.71294 -13.00107,-25.6024 -13.63427,-6.04421 -39.14838,-17.232654 -66.1888,-22.418788 0.0366,-0.589353 0.0549,-1.173718 0.0549,-1.772907 0,-7.706606 -3.27956,-14.660756 -8.52097,-19.521131 7.97621,-8.69331 17.40125,-19.215901 26.11682,-29.415123 -8.0787,-9.874179 -24.60211,-16.115826 -42.64512,-16.013423 -0.14335,6.08e-4 -0.27696,-0.0033 -0.4197,0 -0.0244,6.08e-4 -0.0659,-2.2e-5 -0.0952,0 0,5.4e-5 -0.0183,4.3e-5 -0.0183,0 0,1.63e-4 -0.0183,-4.4e-5 -0.0183,0 -0.0122,-1.74e-4 -0.0244,3.2e-5 -0.0366,0 0,-4.4e-5 -0.0183,-1.09e-4 -0.0183,0 0,5.4e-5 -0.0183,4.3e-5 -0.0183,0 -0.007,-3.15e-4 -0.0305,-2.94e-4 -0.0366,0 0,5.4e-5 -0.0183,4.3e-5 -0.0183,0 0,-1.1e-5 -0.0183,-9.8e-5 -0.0183,0 0,4.3e-5 -0.0183,1.08e-4 -0.0183,0 0,-1.1e-5 -0.0183,-9.8e-5 -0.0183,0 -0.007,-1.74e-4 -0.0305,4.3e-5 -0.0366,0 0,-3.3e-5 -0.0183,1.08e-4 -0.0183,0 0,-1.2e-4 -0.0122,-3.3e-5 -0.0183,0 z m -2.45905,51.204817 c 0.0245,-0.0022 0.0488,0.0022 0.0763,0 0,-3.04e-4 0.0183,1.09e-4 0.0183,0 0.0122,1.3e-4 0.0244,-1.74e-4 0.0366,0 0,-9.8e-5 0.0122,2.93e-4 0.0183,0 0,-1.41e-4 0.0122,-4.3e-5 0.0183,0 0.0122,1.2e-4 0.0244,-1.52e-4 0.0366,0 0,4.3e-5 0.0183,1.41e-4 0.0183,0 0,-1.41e-4 0.0122,-4.3e-5 0.0183,0 0.0122,1.09e-4 0.0245,-1.52e-4 0.0366,0 0,4.3e-5 0.0183,1.2e-4 0.0183,0 0,-1.2e-4 0.0122,-4.3e-5 0.0183,0 0.0122,1.09e-4 0.0245,-1.41e-4 0.0366,0 0,4.3e-5 0.0183,1.2e-4 0.0183,0 0,-1.2e-4 0.0122,-4.3e-5 0.0183,0 0.0122,9.8e-5 0.0243,-1.3e-4 0.0366,0 0,4.3e-5 0.0183,1.09e-4 0.0183,0 0,-1.09e-4 0.0122,-3.3e-5 0.0183,0 0.0122,7.6e-5 0.0245,-1.2e-4 0.0366,0 0,-5.4e-5 0.0122,1.96e-4 0.0183,0 0.0549,-0.0033 0.11652,0.0022 0.17142,0 0.0842,-0.0033 0.16349,0.0022 0.24768,0 0.11408,-0.0033 0.22876,0 0.34344,0 7.343,1.1e-5 13.3061,5.963121 13.3061,13.306395 0,7.343262 -5.9631,13.306387 -13.3061,13.306387 -7.34359,0 -13.30668,-5.963125 -13.30668,-13.306387 0,-6.89645 5.28716,-12.638637 12.01036,-13.306395 z m -23.2765,28.976672 c 0.0243,-0.003 0.0488,0.002 0.0763,0 0,-3.6e-4 0.0183,1.3e-4 0.0183,0 0.0122,1.2e-4 0.0243,-2.2e-4 0.0366,0 0,-1e-4 0.0183,3.1e-4 0.0183,0 0,-1.7e-4 0.0122,-6e-5 0.0183,0 0.0122,1.1e-4 0.0243,-2.1e-4 0.0366,0 0,4e-5 0.0183,1.4e-4 0.0183,0 0,5e-5 0.0182,5e-5 0.0182,0 0.0183,9e-5 0.0427,-1.9e-4 0.0549,0 0,-5e-5 0.0122,-5e-5 0.0183,0 0,4e-5 0.0183,5e-5 0.0183,0 0.0183,7e-5 0.0427,-1.8e-4 0.0549,0 0,-4e-5 0.0122,-4e-5 0.0183,0 0,-1.2e-4 0.0122,-5e-5 0.0183,0 0.0183,5e-5 0.0427,-1.7e-4 0.0549,0 0,-6e-5 0.0122,1.9e-4 0.0183,0 0.0969,-0.004 0.19154,0.001 0.2861,0 5.60318,-0.0863 6.70063,4.52887 3.60287,8.78832 -3.43267,4.72042 -9.44395,11.15101 -13.30609,13.72578 -3.86213,2.57478 -17.71114,3.63464 -27.03249,5.58563 -9.22616,1.93109 -20.58563,6.00425 -26.59349,7.72076 -6.00782,1.71652 -6.4435,-5.56378 -6.4435,-11.57161 0,-6.1442 7.72359,-9.02443 22.74266,-13.74485 15.01967,-4.72042 37.77154,-9.00696 45.06634,-10.29434 0.40811,-0.0721 0.79365,-0.16406 1.16333,-0.20969 z m 47.4107,0.0572 c 0.0245,-0.002 0.0366,0.002 0.0549,0 0,-1e-4 0.0183,-3e-5 0.0183,0 0.007,3.8e-4 0.0305,2.3e-4 0.0366,0 0,-9e-5 0.0183,-3e-5 0.0183,0 0.007,3.4e-4 0.0305,2e-4 0.0366,0 0.0183,-0.001 0.0427,-4.4e-4 0.0549,0 0.0243,6e-4 0.0549,10e-4 0.0763,0 0.0488,-0.003 0.0878,0.002 0.1336,0 0.0934,-0.004 0.19093,6e-4 0.28611,0 0.5167,-0.003 1.06939,0.052 1.63916,0.1525 7.29541,1.28739 29.17005,6.43178 44.18971,11.15221 15.01968,4.72042 27.4705,11.03209 27.4705,17.17629 0,10.29911 -2.57008,15.86212 -9.43664,13.28734 -5.85023,-2.19391 -18.24431,-7.5054 -27.47048,-9.43649 -9.32133,-1.951 -24.02806,-4.70751 -27.89019,-7.28229 -3.86214,-2.57477 -10.29252,-9.02443 -13.7258,-13.74485 -3.03065,-4.16776 -1.02791,-10.72231 4.49901,-11.30471 z m -23.08555,28.13786 c 0,2e-5 0.0183,-1e-4 0.0183,0 0,4e-5 0.0183,2e-5 0.0183,0 0.0122,2.7e-4 0.0305,-3.6e-4 0.0366,0 0,2e-5 0.0122,1.6e-4 0.0183,0 2.22479,-0.10531 4.47461,1.55347 5.29937,4.63246 2.02715,7.56404 4.6442,15.08997 11.17158,22.3044 8.15311,9.01172 2.7787,28.87875 -17.59586,28.74791 -20.37639,-0.13087 -25.98689,-20.06462 -14.60241,-30.02517 7.96767,-6.97168 8.90102,-13.77151 10.73235,-20.60775 0.87296,-3.25738 2.83361,-4.86133 4.84246,-5.03278 0,-1.4e-4 0.0122,-1.1e-4 0.0183,0 0,3e-5 0.0183,-1.1e-4 0.0183,0 0,-0.002 0.0183,-0.017 0.0183,-0.019 z m -109.61593,2.89767 c 0.007,-4e-5 0.0183,-1.2e-4 0.0189,0 0,8e-5 0.0177,-7e-5 0.0189,0 0,-7e-5 0.0171,0 0.0189,0 0.007,0.003 0.0317,0.0158 0.0378,0.019 1.39417,0.72179 12.42903,21.19304 10.21809,24.87799 -2.57478,4.2913 -17.16541,4.72936 -20.16929,1.29633 -2.60534,-2.97748 9.85585,-26.17432 9.85585,-26.17432 -1.2e-4,-0.001 0,-0.0148 0,-0.019 z m 193.72452,25.01144 c 0,5e-5 0.0183,8e-5 0.0183,0 0.0243,-4.5e-4 0.0549,-3.6e-4 0.0763,0 0,-2e-5 0.0122,-4e-5 0.0183,0 0.51548,-0.0249 0.99375,0.0843 1.42992,0.32407 5.58975,3.07439 -23.17645,66.42513 -81.53485,66.51289 -65.71969,0.0988 -94.7548,-45.70013 -89.25607,-51.49078 8.5039,-8.95525 24.42581,29.77011 84.52831,29.60578 51.1496,-0.13986 75.01478,-44.14804 84.71862,-44.95196 z m -174.7562,47.67805 c 10.82757,23.07584 11.77129,34.08035 7.60658,52.11987 -4.0011,17.32954 -8.70648,32.71874 15.78465,70.51625 -1.20725,11.80805 -3.6474,32.06916 -6.21503,33.78069 -2.66158,1.77447 -10.66829,5.40876 -22.72375,8.4833 1.46519,-4.43614 3.06732,-10.27275 4.61339,-17.86259 4.72046,-23.173 -1.72108,-28.31342 -10.73277,-60.92725 -6.33522,-22.92736 1.33872,-54.76106 11.66693,-86.11027 z m 83.04108,31.43587 c 0.0622,-0.002 0.12872,0.002 0.19033,0 0.12444,-0.003 0.24157,0.002 0.36237,0 0.18362,-0.004 0.3587,0.002 0.53378,0 2.44563,-0.0281 4.09943,0.14725 4.59417,0.55284 0,0.003 0.0183,0.0158 0.0183,0.019 0,0.003 0.0122,0.0156 0.0183,0.019 3.00381,3.0039 3.86153,29.6135 0.85772,33.47568 -3.00382,3.86216 -66.82813,-7.73847 -66.09365,-19.31142 0.43251,-6.80893 43.58457,-14.25272 59.51686,-14.75523 z m -52.21534,35.36297 14.58349,4.70871 -1.71541,11.59066 45.21885,0.76256 c 1.1127,2.97802 1.74897,6.89548 1.56291,12.10537 -0.13726,3.84876 -0.40751,6.51501 -0.89553,8.57863 0,0.007 0,0.0131 0,0.019 -5.68004,7.22266 -23.2033,3.40722 -23.56261,7.72075 -0.21718,2.60127 15.01663,11.1526 26.17417,10.29435 11.15753,-0.85826 23.17157,-5.58365 23.60043,-9.87495 0.17324,-1.73174 -10.35291,-2.20303 -14.1638,-8.15922 0,-3.17134 0,-3.77082 0,-7.72075 0,-6.60993 -1.0517,-7.95293 1.4104,-12.73449 l 43.21733,0.72442 c 3.43266,6.86607 0.85831,19.74751 -0.85772,24.89706 -1.71663,5.14955 -9.86121,10.72924 -19.73097,18.45355 -9.86975,7.72435 -22.31814,18.45356 -34.33338,18.45357 -12.01586,0 -22.32058,-9.88228 -29.18653,-14.60272 -5.50129,-3.78197 -24.01219,-9.47357 -27.89019,-19.73082 -5.57877,-14.75491 -3.43144,-45.48572 -3.43144,-45.48574 z m 64.12993,88.3979 c 0.0427,-0.002 0.0909,0.002 0.13361,0 0.0427,-0.002 0.0909,0.002 0.13359,0 0.0427,-0.002 0.0903,0.002 0.13299,0 0.0427,-0.002 0.0903,0.002 0.1336,0 0.0427,-0.002 0.0903,0.002 0.13359,0 0.0427,-0.002 0.0897,0.002 0.13361,0 0.0427,-0.002 0.0897,10e-4 0.13298,0 0.0891,-0.003 0.17875,0.002 0.26719,0 0.13604,-0.003 0.26598,0.002 0.40019,0 0.23303,-0.004 0.45875,4.7e-4 0.68629,0 3.16181,-0.007 5.76545,0.37206 6.52005,1.27726 2.1455,2.57477 -7.71938,34.15942 -11.57175,34.33354 -4.73265,0.21391 -12.02075,-30.04304 -9.87525,-32.61781 1.21702,-1.4599 7.24111,-2.70559 12.63931,-2.99299 z m -152.87088,25.18301 c 0.007,-4e-5 0.0177,-1.2e-4 0.0189,0 0,1e-5 0.0171,-10e-5 0.0189,0 0.007,3e-5 0.0317,-1.7e-4 0.0378,0 0,-10e-5 0.0177,0 0.0189,0 0.007,1.7e-4 0.0159,-10e-5 0.0189,0 0.0506,-0.003 0.10107,0.001 0.15251,0 4.28714,-0.10195 10.88338,1.8301 17.48128,1.83011 9.10325,0 20.03568,-2.42755 23.67699,0 3.6413,2.42751 11.52088,51.5828 9.09336,54.61719 -2.42751,3.03441 -4.8571,5.45534 -29.73921,6.06222 -24.8821,0.60689 -39.436139,-1.81092 -41.863644,-5.45218 -2.427514,-3.64129 3.034735,-13.51986 7.892325,-27.31813 5.6111,-15.93888 6.66896,-25.48473 9.703339,-28.51914 0.78231,-0.78231 1.96547,-1.12934 3.45054,-1.20101 0,5e-5 0.0177,0 0.0189,0 0,9e-5 0.0177,-1e-5 0.0189,0 -1.2e-4,-0.001 -6e-5,-0.0148 0,-0.019 z m 285.80119,2.19231 c 0.0805,-0.003 0.16776,0.003 0.24828,0 0.0829,-0.003 0.16471,0.003 0.24768,0 0.0854,-0.003 0.16227,0.003 0.24767,0 0.0885,-0.003 0.17874,0.002 0.2672,0 0.0909,-0.003 0.17508,0.002 0.26658,0 0.0946,-0.003 0.19155,0.002 0.28611,0 0.0969,-0.002 0.1885,0.002 0.28611,0 0.1,-0.002 0.20436,0.002 0.30501,0 0.10314,-0.002 0.20132,0.002 0.30502,0 0.10619,-0.002 0.21718,0.002 0.32393,0 0.1098,-0.002 0.21412,0.002 0.32393,0 0.11347,-0.002 0.23059,0.002 0.34344,0 0.11653,-0.002 0.22694,0.002 0.34285,0 0.24828,-0.003 0.49718,0.002 0.74363,0 5.94662,-0.0602 11.29052,0.23349 13.11575,2.05887 3.03432,3.03439 4.09212,11.97023 9.70322,27.9091 4.85771,13.79828 6.67867,24.89692 4.25134,28.5382 -2.42733,3.6413 -16.98155,6.05908 -41.86366,5.45219 -24.88211,-0.60688 -32.78328,-3.63785 -35.21061,-6.67225 -2.42733,-3.03442 10.31325,-51.57965 13.95455,-54.00717 3.6413,-2.42752 15.18378,-3.03111 24.28733,-3.03111 2.25041,0 4.73021,-0.15566 7.22464,-0.24783 z m -200.4917,15.40338 c -7.62482,0.80319 -13.55437,7.33975 -13.55437,15.17461 0,8.37497 6.80007,15.17464 15.17463,15.17463 8.37517,0 15.17462,-6.79966 15.17462,-15.17463 0,-8.37495 -6.79945,-15.1746 -15.17462,-15.17461 -0.0305,0 -0.0623,-2.1e-4 -0.0952,0 -0.12994,6e-4 -0.25194,-0.004 -0.38127,0 -0.0635,0.002 -0.12689,-0.003 -0.19033,0 -0.0635,0.003 -0.12811,-0.003 -0.19094,0 0,-4e-5 -0.0183,-4e-5 -0.0183,0 -0.0183,-1.5e-4 -0.0427,8e-5 -0.0549,0 0,4e-5 -0.0183,4e-5 -0.0183,0 0,-5e-5 -0.0183,-5e-5 -0.0183,0 -0.0183,-1.6e-4 -0.0427,1e-4 -0.0549,0 0,5e-5 -0.0122,5e-5 -0.0182,0 0,-5e-5 -0.0183,-5e-5 -0.0183,0 -0.0183,-1.7e-4 -0.0427,1.2e-4 -0.0549,0 0,5e-5 -0.0183,5e-5 -0.0183,0 0,-5e-5 -0.0183,-5e-5 -0.0183,0 -0.0183,-1.8e-4 -0.0427,1.3e-4 -0.0549,0 0,5e-5 -0.0122,5e-5 -0.0183,0 0,-5e-5 -0.0183,-6e-5 -0.0183,0 -0.0183,-1.9e-4 -0.0427,1.3e-4 -0.0549,0 0,5e-5 -0.0183,5e-5 -0.0183,0 0,-6e-5 -0.0182,-6e-5 -0.0182,0 -0.0183,-2e-4 -0.0427,1.5e-4 -0.0549,0 0,6e-5 -0.0122,6e-5 -0.0183,0 0,-7e-5 -0.0183,-6e-5 -0.0183,0 -0.0183,-2e-4 -0.0427,1.6e-4 -0.0549,0 0,6e-5 -0.0183,6e-5 -0.0183,0 0,3.7e-4 -0.0122,-1.2e-4 -0.0183,0 -0.0183,-2.2e-4 -0.0427,1.7e-4 -0.0549,0 0,1.4e-4 -0.0122,-4e-4 -0.0183,0 z m 118.34682,4.25118 c -7.62483,0.803 -13.55437,7.33962 -13.55437,15.17462 0,8.37495 6.80006,15.17464 15.17462,15.17462 8.37518,0 15.17462,-6.79966 15.17462,-15.17462 0,-8.37496 -6.79944,-15.17462 -15.17462,-15.17462 -0.0983,0 -0.18789,-0.002 -0.2855,0 -0.0969,0.002 -0.19033,-0.003 -0.2861,0 -0.0635,0.002 -0.1275,-0.003 -0.19095,0 0,2e-4 -0.0122,-6e-5 -0.0183,0 -0.0183,-1.3e-4 -0.0427,8e-5 -0.0549,0 0,3e-5 -0.0122,3e-5 -0.0183,0 0,-4e-5 -0.0183,-4e-5 -0.0183,0 -0.0183,-1.4e-4 -0.0427,9e-5 -0.0549,0 0,5e-5 -0.0183,5e-5 -0.0183,0 0,-4e-5 -0.0183,-4e-5 -0.0183,0 -0.0183,-1.5e-4 -0.0427,10e-5 -0.0549,0 0,5e-5 -0.0122,5e-5 -0.0183,0 0,-4e-5 -0.0183,-4e-5 -0.0183,0 -0.0183,-1.6e-4 -0.0427,1.1e-4 -0.0549,0 0,5e-5 -0.0183,5e-5 -0.0183,0 0,-5e-5 -0.0183,-4e-5 -0.0183,0 -0.0183,-1.7e-4 -0.0427,1.2e-4 -0.0549,0 0,6e-5 -0.0122,6e-5 -0.0183,0 0,-5e-5 -0.0183,-5e-5 -0.0183,0 -0.0183,-1.8e-4 -0.0427,1.3e-4 -0.0549,0 0,6e-5 -0.0183,6e-5 -0.0183,0 0,-5e-5 -0.0183,-5e-5 -0.0183,0 -0.0183,-1.9e-4 -0.0427,1.4e-4 -0.0549,0 0,6e-5 -0.0122,6e-5 -0.0183,0 0,-6e-5 -0.0183,-5e-5 -0.0183,0 -0.0183,-2e-4 -0.0427,1.5e-4 -0.0549,0 0,7e-5 -0.0183,6e-5 -0.0183,0 0,3.7e-4 -0.0122,-1.3e-4 -0.0183,0 -0.0183,-2.1e-4 -0.0427,1.7e-4 -0.0549,0 0,1.4e-4 -0.0122,-3.9e-4 -0.0183,0 z"
     id="path2184-5"
     inkscape:connector-curvature="0" />
</svg>
