<?xml version="1.0" encoding="UTF-8" standalone="no"?>
<!-- Created with Inkscape (http://www.inkscape.org/) -->

<svg
   xmlns:dc="http://purl.org/dc/elements/1.1/"
   xmlns:cc="http://creativecommons.org/ns#"
   xmlns:rdf="http://www.w3.org/1999/02/22-rdf-syntax-ns#"
   xmlns:svg="http://www.w3.org/2000/svg"
   xmlns="http://www.w3.org/2000/svg"
   xmlns:sodipodi="http://sodipodi.sourceforge.net/DTD/sodipodi-0.dtd"
   xmlns:inkscape="http://www.inkscape.org/namespaces/inkscape"
   id="svg1376"
   sodipodi:version="0.32"
   inkscape:version="0.91 r13725"
   width="500"
   height="500"
   sodipodi:docname="6.svg"
   version="1.0">
  <metadata
     id="metadata1381">
    <rdf:RDF>
      <cc:Work
         rdf:about="">
        <dc:format>image/svg+xml</dc:format>
        <dc:type
           rdf:resource="http://purl.org/dc/dcmitype/StillImage" />
        <dc:title />
      </cc:Work>
    </rdf:RDF>
  </metadata>
  <defs
     id="defs1379" />
  <sodipodi:namedview
     inkscape:window-height="1008"
     inkscape:window-width="958"
     inkscape:pageshadow="2"
     inkscape:pageopacity="0.0"
     borderopacity="1.0"
     bordercolor="#666666"
     pagecolor="#ffffff"
     id="base"
     showguides="true"
     inkscape:guide-bbox="true"
     inkscape:zoom="0.60585141"
     inkscape:cx="365.31766"
     inkscape:cy="173.75574"
     inkscape:window-x="953"
     inkscape:window-y="0"
     inkscape:current-layer="svg1376"
     showgrid="false"
     units="px"
     inkscape:window-maximized="0" />
  <path
     inkscape:connector-curvature="0"
     style="opacity:1;fill:#000000;fill-opacity:1;fill-rule:evenodd;stroke:none;stroke-width:1px;stroke-linecap:butt;stroke-linejoin:miter;stroke-opacity:1"
     d="m 180.3467,26.64245 c -13.55601,0.764355 -24.35177,12.057537 -24.35177,25.803322 0,12.873329 9.43925,23.5477 21.77334,25.478632 0.47788,5.541178 1.12026,11.582358 1.43247,17.514175 0.85986,16.337561 12.02582,138.844111 7.31507,144.448941 -4.8989,5.8287 -25.79734,2.14888 -38.69543,1.71896 -12.89093,-0.42969 -13.75795,18.92711 0,19.787 11.705,0.73156 25.28502,2.39563 39.40211,2.08183 0.40863,2.92279 0.7751,6.27456 1.01227,9.95081 0.85988,13.32801 -13.7488,27.0985 -19.7679,34.83733 -6.0191,7.73886 -4.73009,15.46973 1.71894,17.18949 6.34111,1.69097 2.99861,3.86583 2.99861,7.73527 0,3.86942 -0.9456,9.90601 3.87719,15.05035 6.44903,6.87897 -0.062,12.17794 0.42019,22.78561 0.37199,8.18389 6.22466,14.43901 19.76789,19.596 8.05889,30.85275 3.80975,68.1921 2.59752,82.73871 39.98406,-6.01911 137.99792,-29.66797 148.74633,-36.11701 -1.7198,-13.32802 -9.88457,-60.62734 -8.59473,-68.79613 1.06229,-6.7282 -1.94557,-12.29067 -6.6466,-13.08311 -0.55403,-16.59968 4.59419,-26.95178 17.81973,-42.38162 17.74822,-20.70625 11.41137,-60.93841 -0.64938,-68.43322 4.05079,-64.44767 -17.48524,-137.91923 -24.27534,-165.878508 -7.30893,-30.095516 -11.6089,-34.827999 -19.34774,-34.398064 -5.42577,0.301429 -63.47143,3.775262 -99.317,7.601571 C 207.27725,37.8977 195.82704,26.642444 181.77916,26.64245 c -0.16688,0 -0.33047,-0.003 -0.49659,0 -0.10945,0.0018 -0.21558,-0.0037 -0.32469,0 -0.0541,0.0018 -0.0987,-0.0018 -0.1528,0 -0.0539,0.0018 -0.0991,-0.0024 -0.15279,0 -0.0536,0.0024 -0.0994,-0.0024 -0.1528,0 -0.0533,0.0024 -0.0997,-0.003 -0.15279,0 z m 115.24591,28.954726 c 0.0523,-0.0018 0.10108,0.0012 0.15278,0 0.20708,-0.0037 0.40987,0.0012 0.61119,0 8.18629,-0.05018 12.04884,0.502478 13.12134,1.145966 2.14965,1.289813 7.74618,15.469341 4.73665,18.048956 -3.00958,2.579626 -40.85289,2.156645 -42.57264,5.596132 -1.71975,3.439496 6.01513,135.85261 8.59475,139.2921 2.5796,3.43948 55.04374,-6.01751 56.76347,-3.4379 1.71975,2.57961 2.58005,15.48884 -0.85943,17.20859 -3.43949,1.71974 -26.66402,4.71556 -65.35823,9.01492 -38.69428,4.29937 -65.35746,6.46615 -67.0772,4.31648 -1.71974,-2.14967 -3.00996,-11.61981 0.85947,-16.34912 3.86943,-4.7293 51.60504,-3.86543 55.04453,-8.59473 3.43948,-4.72931 -6.03382,-138.441177 -9.47332,-140.590867 -3.43948,-2.149672 -52.86558,9.88495 -56.30507,7.735272 -3.43948,-2.149698 -5.1678,-17.618231 -2.15824,-19.767909 3.00955,-2.149679 28.38372,-7.752777 65.35823,-11.192262 17.62068,-1.639134 29.85489,-2.301466 38.08426,-2.406528 0.15885,-0.0018 0.32075,-0.01381 0.47746,-0.01907 z m -99.62258,76.817894 c 36.11462,4.72929 33.10429,55.45299 1.71895,60.18228 -2.14967,-19.34713 -5.58838,-49.86382 -1.71895,-60.18228 z m 63.69659,126.03709 c 0,0 -43.07552,112.23588 -45.99143,117.40415 -3.37879,5.98871 -13.18516,3.44418 -17.70516,1.18418 -6.0191,-3.00956 -6.86723,-10.75139 -4.71755,-14.19087 2.14967,-3.43949 1.29019,-7.29441 -0.85949,-10.73388 -2.14967,-3.4395 1.27808,-8.17336 4.71756,-10.75298 3.4395,-2.57962 8.6041,-12.0404 9.03403,-15.90982 0.42993,-3.86943 -9.86409,-0.92202 -20.20719,-3.87718 -9.39801,-2.68515 2.95213,-15.84856 11.47875,-24.56186 2.62026,3.21135 6.11529,7.12186 7.86896,7.37238 3.00955,0.42993 33.52844,-11.17116 34.81826,-15.47054 1.14012,-3.80043 -30.29295,-11.64129 -37.60677,-13.4078 -0.45346,-1.5479 -0.74643,-3.10742 -0.64939,-4.66026 0.22337,-3.57384 1.37806,-5.74602 3.81989,-8.40375 12.18689,-0.88793 33.42001,-2.40106 55.99953,-3.99177 z m 38.16065,33.59588 c 0.0174,-0.002 0.0398,0.002 0.0572,0 0.002,-8e-5 0.0166,-1e-5 0.0191,0 0.007,3.5e-4 0.0313,2.1e-4 0.0382,0 0.003,7e-5 0.0168,9e-5 0.0191,0 0.0192,7e-5 0.0573,-2.9e-4 0.0764,0 0.002,-4e-5 0.0155,-4e-5 0.0191,0 1.36886,-0.095 2.86705,0.51203 4.54566,2.02455 10.53831,9.49558 2.62502,23.34313 0,28.36264 -2.8819,5.51055 -7.88197,12.53365 -13.98077,13.48419 -8.83983,1.37777 -7.49261,10.43746 -1.92908,11.45965 13.55516,2.4905 18.05393,-13.32522 27.94248,-6.01631 6.22674,4.60239 6.8609,13.23332 1.89083,19.27132 -6.89005,2.65364 -16.11796,5.94497 -28.55362,9.11042 -10.97333,2.79322 -31.6625,6.22786 -50.68989,9.11043 l 22.36542,-58.17685 c 14.84102,-1.2554 23.30746,-3.40498 27.46497,-12.85391 3.21579,-7.30856 6.25983,-15.22954 10.71481,-15.77613 z m 12.2427,88.43034 c 0.003,6e-5 0.017,7e-5 0.0191,0 0.0161,1.2e-4 0.0415,-2.2e-4 0.0572,0 0.002,-4e-5 0.0152,-6e-5 0.0191,0 0.003,5e-5 0.017,6e-5 0.0191,0 0.0163,9e-5 0.0415,-2e-4 0.0572,0 0.002,-4e-5 0.0152,-4e-5 0.0191,0 0.002,-1.3e-4 0.0152,-4e-5 0.0191,0 0.0128,6e-5 0.0258,-1.7e-4 0.0382,0 0.003,4e-5 0.0174,1.1e-4 0.0191,0 0.19319,-0.0122 0.32613,-0.0118 0.42018,0 4.0247,0.50309 5.16743,10.76074 3.01772,14.63015 -2.14966,3.86944 -85.22503,25.43398 -87.70454,21.92615 -3.28832,-4.65202 -1.85952,-15.95857 2.9986,-18.06806 6.44473,-2.79842 72.81833,-17.72103 81.00064,-18.48824 z m 4.18281,30.0816 c 0.002,1e-5 0.0169,-10e-5 0.0191,0 0.002,1e-5 0.017,-10e-5 0.0191,0 0.002,0 0.0172,-7e-5 0.0191,0 0.002,0 0.0172,-5e-5 0.0191,0 0.0165,-2.9e-4 0.0421,-5.7e-4 0.0573,0 0.003,6e-5 0.0153,5e-5 0.0191,0 0.0997,-0.002 0.1704,0.0118 0.22919,0.0191 4.02469,0.50308 5.16736,10.74162 3.01772,14.61106 -2.14971,3.86941 -88.43078,28.25982 -91.16158,24.94384 -3.28831,-3.99295 -1.84041,-15.45796 3.01771,-18.04896 6.27269,-3.34544 77.6245,-20.94257 84.68683,-21.50594 0.002,6e-5 0.0175,0 0.0191,0 0.002,8e-5 0.0174,-10e-6 0.0191,0 0.002,-0.002 0.0174,-0.017 0.0191,-0.0191 z"
     id="path2184" />
</svg>
