<?xml version="1.0" encoding="UTF-8" standalone="no"?>
<!-- Created with Inkscape (http://www.inkscape.org/) -->

<svg
   xmlns:dc="http://purl.org/dc/elements/1.1/"
   xmlns:cc="http://creativecommons.org/ns#"
   xmlns:rdf="http://www.w3.org/1999/02/22-rdf-syntax-ns#"
   xmlns:svg="http://www.w3.org/2000/svg"
   xmlns="http://www.w3.org/2000/svg"
   xmlns:sodipodi="http://sodipodi.sourceforge.net/DTD/sodipodi-0.dtd"
   xmlns:inkscape="http://www.inkscape.org/namespaces/inkscape"
   id="svg1376"
   sodipodi:version="0.32"
   inkscape:version="0.91 r13725"
   width="500"
   height="500"
   sodipodi:docname="7.svg"
   version="1.0">
  <metadata
     id="metadata1381">
    <rdf:RDF>
      <cc:Work
         rdf:about="">
        <dc:format>image/svg+xml</dc:format>
        <dc:type
           rdf:resource="http://purl.org/dc/dcmitype/StillImage" />
        <dc:title></dc:title>
      </cc:Work>
    </rdf:RDF>
  </metadata>
  <defs
     id="defs1379" />
  <sodipodi:namedview
     inkscape:window-height="1008"
     inkscape:window-width="958"
     inkscape:pageshadow="2"
     inkscape:pageopacity="0.0"
     borderopacity="1.0"
     bordercolor="#666666"
     pagecolor="#ffffff"
     id="base"
     showguides="true"
     inkscape:guide-bbox="true"
     inkscape:zoom="0.3029257"
     inkscape:cx="-417.66333"
     inkscape:cy="230.08095"
     inkscape:window-x="798"
     inkscape:window-y="113"
     inkscape:current-layer="svg1376"
     showgrid="false"
     units="px"
     inkscape:window-maximized="0" />
  <path
     inkscape:connector-curvature="0"
     style="fill:#000000;fill-opacity:1;fill-rule:evenodd;stroke:#000000;stroke-width:0.54797965px;stroke-linecap:butt;stroke-linejoin:miter;stroke-opacity:1"
     d="m 325.01032,32.171817 c -0.38353,0.01501 -0.75978,0.04296 -1.14736,0.05134 -9.08934,0.197596 -16.13734,4.596196 -21.73079,12.055552 -18.84009,-5.801794 -37.82063,-8.472236 -55.77409,-8.425187 -0.32248,0.0011 -0.63708,-0.0027 -0.95896,0 -0.15963,0.0011 -0.31997,-0.0016 -0.47948,0 -0.15886,0.0016 -0.32074,-0.0022 -0.47948,0 -0.15804,0.0022 -0.32156,-0.0027 -0.47949,0 -0.15727,0.0027 -0.32232,-0.0027 -0.47948,0 -40.0692,0.75173 -74.60826,15.05053 -90.2625,37.793471 -29.06089,42.220557 -13.01112,72.352017 5.99353,81.220847 11.68354,5.45233 40.33711,2.83555 58.13719,-15.60029 0.71555,6.88304 -0.9708,14.93883 -4.64067,24.02549 -9.98145,5.13292 -18.2908,10.99324 -24.04261,16.11403 -12.87496,11.46246 -22.2564,25.12692 -33.40964,38.52982 -0.93088,-0.48781 -1.80213,-0.9658 -2.58577,-1.45557 -8.72234,-5.45147 -17.97763,-3.8e-4 -20.70336,9.81226 -1.41906,5.1086 -0.9152,10.19424 1.66106,13.69949 -17.53303,14.17337 -31.67489,14.30878 -32.1938,18.46006 -0.54515,4.36117 4.6602,18.48411 28.34082,23.99123 3.30604,0.76885 6.91367,1.00907 10.77123,0.89047 -8.31616,6.78189 -19.48753,16.85146 -19.48753,22.00481 0,3.00666 2.35941,8.0798 5.3428,13.2885 -5.98784,4.56788 -11.88431,11.42328 -11.88431,17.77509 0,6.36971 5.63153,14.38607 13.27139,17.62097 -6.26675,10.41195 -9.60082,16.25473 -10.00063,19.45328 -0.54515,4.36115 13.62532,50.69217 12.53503,94.30387 52.87919,-8.72234 119.93716,-19.61294 169.00035,-23.97411 -2.84029,-35.30035 5.48544,-62.45235 9.93213,-74.02862 22.3173,0.14328 54.35542,-8.42114 64.91844,-31.08072 -34.33783,-13.08823 -30.6936,-46.99047 -2.34601,-90.05703 23.34963,-35.47351 42.62377,-104.24567 7.56897,-153.896659 1.91919,-2.29358 3.59518,-4.43428 4.96606,-6.37026 12.27014,-17.32836 8.99443,-26.491571 -2.7228,-38.718191 -12.09753,-12.623539 -31.29851,-17.636868 -55.15755,-17.483971 -0.21732,0.0016 -0.43323,-0.0038 -0.65072,0 -0.0816,0.0011 -0.15809,-0.0016 -0.23974,0 -0.0715,0.0016 -0.15092,-0.0022 -0.22265,0 -0.0627,0.0016 -0.1257,-0.0022 -0.18834,0 -0.0548,0.0016 -0.11644,-0.0022 -0.17124,0 z m 4.16119,11.713064 c 0.0171,-0.0016 0.0343,0.0011 0.0514,0 0.0171,-5.15e-4 0.0515,2.31e-4 0.0685,0 0.002,-9.8e-5 0.0138,-3.8e-5 0.0171,0 0.0211,-1.6e-5 0.0455,5.48e-4 0.0685,0 0.12281,-0.0033 0.25317,0.0011 0.37674,0 20.84986,-0.140085 55.34101,10.192487 48.22221,30.429994 -2.20874,6.279124 -16.67957,25.953005 -21.09722,30.858105 -23.39878,25.98098 -33.55487,30.63625 -57.70911,54.45548 -10.9346,9.61121 -11.4085,25.57282 -18.93955,37.43385 -2.41297,7.27326 -14.00055,7.83456 -17.26135,1.01034 -2.68242,-8.09283 2.77217,-16.2413 8.78482,-21.30271 7.15897,-4.13391 9.23488,-14.60649 10.34312,-22.63841 6.69439,-30.17416 9.98358,-58.973019 20.22385,-88.293215 3.20639,-10.060341 9.80023,-19.958563 21.28561,-21.542449 1.64558,-0.226935 3.45934,-0.356915 5.4113,-0.39386 0.0513,-0.0011 0.10275,-0.01189 0.15409,-0.0171 z m -76.30617,33.991862 c 0.095,-0.0027 0.19596,0.0027 0.29114,0 0.0956,-0.0027 0.19525,0.0022 0.29109,0 0.0962,-0.0022 0.19464,0.0022 0.29114,0 0.0969,-0.0022 0.19399,0.0016 0.29109,0 0.0975,-0.0016 0.19338,0.0016 0.29114,0 0.0981,-0.0016 0.19267,0.0011 0.29109,0 0.40002,-0.0049 0.79424,1.7e-5 1.1987,0 6.33224,-2.36e-4 18.78091,2.948109 30.96085,6.815497 -1.4254,6.679471 -2.66614,13.767121 -3.80161,21.11434 -3.32103,21.48997 -5.96256,35.82048 -7.72306,44.91721 -17.29467,-2.36232 -34.43411,0.97733 -49.30107,6.66137 3.71525,-9.84954 8.00916,-35.70768 4.67498,-48.30783 -35.97968,13.08351 -29.96221,-7.62859 -22.33017,-15.805789 4.73109,-5.06901 20.36473,-14.665453 44.57469,-15.394798 z m 96.29033,48.273577 c 8.61846,12.6683 15.14808,30.0611 16.13115,54.88359 1.17032,29.55076 -12.78009,59.56649 -21.5767,83.75526 -0.26363,-6.28201 -0.49093,-12.7764 -0.77062,-19.41903 -1.80274,-42.81549 -11.51535,-67.17662 -33.70075,-81.83733 9.11564,-8.54626 24.84923,-22.85562 39.91692,-37.38249 z m -86.63219,35.7728 c 0.004,-5.5e-4 0.0134,5.5e-4 0.0171,0 0.006,4e-5 0.0285,-1.5e-4 0.0343,0 0.002,-9e-5 0.0157,-1e-5 0.0171,0 0.002,4e-5 0.0157,4e-5 0.0172,0 0.006,-2.6e-4 0.0278,-2.7e-4 0.0342,0 0.002,4e-5 0.015,4e-5 0.0171,0 0.02,-5.5e-4 0.0486,5.5e-4 0.0685,0 0.0911,-0.003 0.18203,10e-4 0.27399,0 3.14058,-0.0336 6.34456,0.31045 9.53829,1.01034 -3.15702,5.01063 -16.4561,8.58038 -20.104,29.00867 -2.72576,15.26409 15.27159,25.07315 27.80997,19.07654 9.00741,-4.3079 15.20764,-23.36642 18.80255,-33.6665 8.41248,8.04138 14.06505,18.45571 13.95633,29.35116 -0.30018,30.08964 -10.06479,48.52107 -16.67913,78.90907 -4.8082,22.09019 11.02327,52.74323 54.62672,60.48325 -13.87786,11.34185 -27.97047,15.82842 -45.13982,11.33633 -31.91155,-8.34918 -39.71034,-41.7161 -45.75631,-56.30491 -6.41651,-17.76058 -23.3179,-30.07296 -41.32106,-34.21448 -21.43422,-5.70173 -43.74179,-0.48638 -65.17533,2.85977 -12.06645,2.15783 -26.28499,2.65187 -35.96116,-5.99353 5.68653,-2.94168 13.18729,-8.07377 18.37444,-12.46653 2.60979,-2.21011 5.07899,-4.47056 7.4491,-6.747 0.004,-6e-5 0.0162,-1.8e-4 0.0171,0 1.17688,0.0216 2.432,-0.0747 3.78448,-0.29112 13.62865,-2.18058 36.26654,-1.93853 55.0548,1.64394 23.06649,4.39823 34.35098,6.5383 47.43449,15.80579 13.08351,9.26749 38.68665,8.17327 37.62226,-14.17897 -1.09032,-22.89614 -17.45776,-27.25645 -32.17671,-22.89528 -14.71895,4.36118 -27.79764,8.18841 -51.78408,5.46268 -16.11586,-1.83136 -29.52197,-4.90829 -39.23189,-8.37382 11.89273,-14.29529 23.3113,-28.73389 40.37925,-41.66357 17.83526,-13.51095 44.88458,-18.09823 57.9317,-18.13471 0.004,-9e-5 0.0136,3.9e-4 0.0172,0 0.003,-5.4e-4 0.0136,5.5e-4 0.0171,0 0.007,-0.002 0.0271,-0.0153 0.0342,-0.0171 z m -46.06454,117.0279 c 3.83088,0.9715 7.65786,2.29047 11.45623,4.02422 6.07501,2.77294 10.55979,6.50637 14.04198,10.8226 l -32.2623,50.94498 c -31.25566,11.51872 -29.9993,-3.60544 -35.2077,-19.23066 -4.32284,-12.96852 -22.70884,-14.28276 -33.66649,-12.91177 -1.79213,-3.70176 -3.02428,-6.87617 -2.85977,-8.35669 0.35775,-3.21976 15.96744,-15.82166 26.66263,-24.1111 0.004,-5e-5 0.0163,-1.6e-4 0.0171,0 1.93621,-0.33569 3.90237,-0.68401 5.89078,-1.01034 l 2.31179,14.21322 43.61573,-14.38446 z m 37.8791,63.51426 c 7.54354,8.33225 18.27912,20.1745 23.71727,26.11466 -31.18596,2.9789 -98.66109,14.1616 -123.19268,20.70335 -9.48131,2.52835 -17.9918,-1.09006 -23.44325,-6.5415 -4.76302,-4.76302 1.3078,-12.43911 12.00418,-28.11821 5.60407,-0.78599 9.17401,-0.73705 11.43907,7.94571 2.79678,10.72097 29.24038,22.38266 52.93139,-9.58965 l 46.54402,-10.51436 z m 35.75567,34.83096 c 0.15601,-0.002 0.30774,0.002 0.46238,0 0.15525,-0.002 0.30852,0.002 0.46233,0 0.78466,-0.008 1.56383,-0.003 2.31182,0 -0.95403,9.40377 -3.81876,18.52857 -3.81876,18.52856 0,0 -91.03542,14.17883 -104.66409,17.44973 -13.62865,3.27087 -13.08842,8.72085 -20.72048,39.24904 l -22.34729,3.27075 c -2.72573,-13.62866 11.44166,-47.97358 18.52856,-56.15079 6.89431,-7.95497 90.01454,-21.7307 129.78553,-22.34729 z"
     id="path2280" />
</svg>
