<?xml version="1.0" encoding="UTF-8" standalone="no"?>
<!-- Created with Inkscape (http://www.inkscape.org/) -->

<svg
   xmlns:dc="http://purl.org/dc/elements/1.1/"
   xmlns:cc="http://creativecommons.org/ns#"
   xmlns:rdf="http://www.w3.org/1999/02/22-rdf-syntax-ns#"
   xmlns:svg="http://www.w3.org/2000/svg"
   xmlns="http://www.w3.org/2000/svg"
   xmlns:sodipodi="http://sodipodi.sourceforge.net/DTD/sodipodi-0.dtd"
   xmlns:inkscape="http://www.inkscape.org/namespaces/inkscape"
   id="svg1376"
   sodipodi:version="0.32"
   inkscape:version="0.91 r13725"
   width="500"
   height="500"
   sodipodi:docname="8.svg"
   version="1.0">
  <metadata
     id="metadata1381">
    <rdf:RDF>
      <cc:Work
         rdf:about="">
        <dc:format>image/svg+xml</dc:format>
        <dc:type
           rdf:resource="http://purl.org/dc/dcmitype/StillImage" />
        <dc:title></dc:title>
      </cc:Work>
    </rdf:RDF>
  </metadata>
  <defs
     id="defs1379" />
  <sodipodi:namedview
     inkscape:window-height="1008"
     inkscape:window-width="958"
     inkscape:pageshadow="2"
     inkscape:pageopacity="0.0"
     borderopacity="1.0"
     bordercolor="#666666"
     pagecolor="#ffffff"
     id="base"
     showguides="true"
     inkscape:guide-bbox="true"
     inkscape:zoom="0.3029257"
     inkscape:cx="-417.66333"
     inkscape:cy="230.08095"
     inkscape:window-x="798"
     inkscape:window-y="113"
     inkscape:current-layer="svg1376"
     showgrid="false"
     units="px"
     inkscape:window-maximized="0" />
  <path
     inkscape:connector-curvature="0"
     style="opacity:1;fill:#000000;fill-opacity:1;fill-rule:evenodd;stroke:#000000;stroke-width:0.54859811px;stroke-linecap:butt;stroke-linejoin:miter;stroke-opacity:1"
     d="m 293.60198,30.79312 c -30.89831,0.699819 -60.87469,18.456957 -66.24322,60.808664 0,0 -52.40329,18.554396 -107.52521,39.293336 1.11095,10.27626 2.49926,19.64569 4.38879,28.32138 -8.57713,27.89995 -14.69404,61.85801 3.2573,65.54033 13.84515,2.84004 17.26588,-8.17835 17.84658,-17.05797 12.2363,16.49293 30.18842,31.68857 56.98563,48.84237 -7.50476,19.58644 -13.75943,36.99044 -12.6349,51.32821 1.00997,12.87706 17.05524,39.9686 28.02994,57.15706 -3.68285,1.0629 -6.78972,3.79262 -8.349,11.14339 -2.70136,12.73511 -16.59507,70.23773 -16.59507,70.23773 -1e-5,-5e-5 41.69129,23.92453 83.36977,22.76682 41.67842,-1.15776 74.86647,-25.08124 74.86647,-25.08124 0,0 -11.58003,-60.20651 -12.73774,-64.83744 -0.97371,-3.89466 -1.12539,-10.52935 -6.42891,-12.99492 23.87285,-34.68891 30.81569,-43.27536 31.5101,-63.4145 0.40432,-11.72522 -7.36997,-27.87472 -14.55496,-40.20196 8.06225,-10.86818 8.67152,-21.44762 5.17739,-38.41901 C 395.9886,173.46955 390.72639,104.16133 358.88515,59.937388 345.64622,41.549916 319.7316,30.43771 294.32201,30.79312 c -0.12167,0.0016 -0.23831,-0.0022 -0.35999,0 -0.12118,0.0022 -0.23885,-0.0027 -0.36004,0 z m 6.10315,10.029053 c 72.45763,-0.575386 96.62843,116.409717 50.45391,163.722247 0.22745,-1.39594 7.37371,-46.32414 -8.74328,-78.02094 0,0 7.10133,46.39317 -18.54947,60.03721 0.54552,-9.81995 -0.0143,-39.2692 -15.82366,-68.72906 0.32411,1.55543 10.48371,51.3958 -15.84077,59.45432 0,-7.0949 -2.18512,-34.39196 -20.19526,-64.40885 8.18261,25.63877 12.00453,54.53211 -17.96659,68.72906 0.37442,-1.34538 -2.55932,-30.27968 -9.309,-49.08239 -7.64065,-21.2847 -18.55232,-90.144379 55.11694,-91.684453 0.28571,-0.0059 0.57301,-0.01487 0.85718,-0.01712 z m -77.79806,63.843107 c 0.004,1e-5 0.0155,-4e-5 0.0172,0 0.0145,5e-5 0.0375,-2.8e-4 0.0514,0 0.003,4e-5 0.0154,1.3e-4 0.0172,0 0.003,4e-5 0.0153,6e-5 0.0171,0 0.0147,0 0.0374,-2.2e-4 0.0515,0 0.003,-4e-5 0.0138,1.7e-4 0.0171,0 0.16261,-0.008 0.2833,0.009 0.36005,0.0343 3.27458,1.09153 7.09178,13.64342 6.00029,16.37223 -1.09155,2.72881 -87.8613,34.38173 -91.13587,32.74445 -3.27457,-1.63729 -6.32683,-11.65066 -3.82304,-15.82363 2.3333,-3.88882 80.59041,-32.54561 88.42714,-33.32733 z m 58.39141,68.79763 3.8059,28.3728 26.19555,-23.46971 1.0972,34.93884 25.64696,-22.92111 c 0,0 1.09166,20.1976 -3.27442,33.84164 -7.64065,2.72881 -48.01846,4.89743 -74.21506,3.8059 -25.56747,-1.06531 -41.73597,-11.50061 -42.49918,-12.00058 0.0136,-0.004 0.0249,-0.0131 0.0343,-0.0171 0.003,-0.003 0.0141,-0.014 0.0171,-0.0171 0.006,-0.003 0.0285,-0.0142 0.0343,-0.0171 0.003,-0.006 0.0145,-0.0282 0.0172,-0.0343 0.003,-0.003 0.014,-0.0141 0.0171,-0.0171 0.004,-0.007 0.0139,-0.0269 0.0172,-0.0343 0.003,-0.006 0.0141,-0.0283 0.0171,-0.0343 0.001,-0.003 -5.5e-4,-0.014 0,-0.0171 0.005,-0.0212 0.0138,-0.0495 0.0172,-0.0686 0.18295,-1.16482 -1.33891,-6.25156 5.76028,-16.66367 8.1864,-12.00675 22.37249,-18.54946 22.37249,-18.54947 l 4.92026,22.92112 30.01858,-30.01861 z m -136.05231,4.7488 c 0.0222,-0.003 0.0471,0.002 0.0686,0 0.003,-2.9e-4 0.0143,1.3e-4 0.0171,0 0.0112,-7e-5 0.0229,-2.7e-4 0.0343,0 0.003,-1e-5 0.014,1.2e-4 0.0171,0 5.57861,-0.21274 29.85802,31.96007 69.87767,50.91676 41.47791,19.64741 123.88875,3.81725 128.80057,6.00029 4.91187,2.18305 1.63444,15.83783 -0.5486,18.56662 -2.18304,2.72881 -58.94922,14.73272 -116.79999,-0.5486 -57.85065,-15.28132 -86.22714,-69.32316 -81.86105,-74.78078 0.0126,-0.008 0.0371,-0.0254 0.0514,-0.0343 0.0447,-0.0238 0.10593,-0.0518 0.15429,-0.0686 0.0569,-0.0186 0.12197,-0.0416 0.18858,-0.0514 z m 126.91475,92.61021 c 0.12168,-0.003 0.2377,0.003 0.35999,0 0.14093,-0.003 0.28691,0.003 0.42862,0 l 0.97716,26.24699 c -15.93491,-0.49228 -28.71368,-4.98043 -49.83668,-12.9092 5.49745,-8.4075 17.04209,-12.61207 48.07091,-13.33779 z m 63.24304,16.83511 c -3.57702,21.49621 -7.16408,51.13819 -15.44643,57.25994 -8.87599,6.56052 -16.20598,5.40309 -23.53832,-0.77149 -7.33229,-6.17458 -8.87204,-12.73275 -8.4861,-23.53828 0.077,-2.15477 0.14878,-4.16047 0.22284,-5.98315 8.48116,-0.45966 28.73606,-1.67926 30.25864,-2.89728 1.33238,-1.06593 -3.02952,-7.09914 -5.86314,-10.73195 7.27677,-3.15697 14.65695,-7.51534 22.85251,-13.33779 z m -114.87984,6.25744 c 8.14992,3.06583 15.0729,5.64411 21.36104,7.73181 l -4.88598,10.47479 c 0,0 19.67042,2.69228 23.91548,1.14863 2.39918,-0.87242 6.03841,-3.47714 8.74328,-5.5717 1.53338,0.10686 3.0908,0.17647 4.6802,0.20572 l 0.92576,25.04694 c 0,0 -9.6494,5.01152 -15.05216,11.57198 -5.40276,6.56052 -13.52026,8.88581 -26.6413,-2.69153 -11.2902,-9.96197 -15.139,-34.2137 -13.04632,-47.91664 z m 60.20864,69.31197 c 0.002,0 0.0152,-2.2e-4 0.0171,0 0.002,5e-5 0.0156,-6e-5 0.0172,0 0.006,-6e-5 0.0284,-2.2e-4 0.0343,0 0.009,-1.1e-4 0.0278,5e-5 0.0343,0 0.0129,2.2e-4 0.0386,-3.9e-4 0.0514,0 0.004,0 0.0129,1.1e-4 0.0172,0 2.09361,-0.0644 4.35642,0.81148 6.63458,2.52009 4.63094,3.47318 5.02796,5.41779 13.13207,4.64597 1.92958,21.61103 -41.28788,32.03028 -47.07658,0.77144 10.41964,-0.77183 18.51376,-0.40092 21.60105,-4.64592 1.51956,-2.08939 3.4198,-3.14977 5.50315,-3.27447 0.002,6e-5 0.0156,0 0.0171,0 0.002,1.1e-4 0.0156,0 0.0172,0 -2.2e-4,0 6e-5,-0.0154 0,-0.017 z m -59.14573,21.41244 c 0.004,-6e-5 0.0162,-1.1e-4 0.0171,0 0.0167,-5.5e-4 0.0521,5.5e-4 0.0686,0 3.4684,-0.39615 40.19721,14.51206 42.3278,17.77803 2.19938,3.37141 11.96805,51.32602 8.10894,55.95701 -3.85912,4.63093 -11.95648,2.69296 -14.65783,-0.39433 -2.70141,-3.0873 -6.9593,-42.83191 -9.27476,-46.30509 -2.31547,-3.47322 -26.62309,-11.57898 -28.93855,-15.05216 -2.31547,-3.47322 -0.38698,-11.19447 2.31442,-11.96629 0.006,0 0.0282,-2.2e-4 0.0343,0 -1.1e-4,0 -5e-5,-0.0132 0,-0.017 z m 107.35379,2.29725 c 0.003,-3.3e-4 0.0142,1.1e-4 0.0171,0 0.0115,1.1e-4 0.023,-2.2e-4 0.0343,0 0.003,-1.1e-4 0.0143,3.3e-4 0.0172,0 0.002,-1.6e-4 0.0136,-5e-5 0.0171,0 0.0144,1.7e-4 0.0374,4.4e-4 0.0515,0 0.0172,-5.5e-4 0.0518,4.4e-4 0.0686,0 0.017,-5.5e-4 0.052,3.9e-4 0.0686,0 0.0168,-4.4e-4 0.0522,2.8e-4 0.0686,0 0.0411,-0.005 0.0821,0 0.11998,0 0.19711,-0.007 0.34024,0.0214 0.44574,0.0516 2.7014,0.77182 3.48129,9.64172 1.16577,13.11495 -2.31547,3.47318 -23.16006,9.26451 -25.47553,12.73774 -2.31546,3.47322 -10.41354,40.90341 -13.11489,43.9907 -2.70141,3.0873 -11.58738,5.0081 -15.44649,0.37717 -3.85912,-4.63094 6.44196,-51.42531 11.58913,-55.56268 4.40107,-3.53763 34.29418,-13.99885 40.37342,-14.70928 z"
     id="path2224" />
</svg>
