<?xml version="1.0" encoding="UTF-8" standalone="no"?>
<!-- Created with Inkscape (http://www.inkscape.org/) -->

<svg
   xmlns:dc="http://purl.org/dc/elements/1.1/"
   xmlns:cc="http://creativecommons.org/ns#"
   xmlns:rdf="http://www.w3.org/1999/02/22-rdf-syntax-ns#"
   xmlns:svg="http://www.w3.org/2000/svg"
   xmlns="http://www.w3.org/2000/svg"
   xmlns:sodipodi="http://sodipodi.sourceforge.net/DTD/sodipodi-0.dtd"
   xmlns:inkscape="http://www.inkscape.org/namespaces/inkscape"
   id="svg1376"
   sodipodi:version="0.32"
   inkscape:version="0.91 r13725"
   width="500"
   height="500"
   sodipodi:docname="9.svg"
   version="1.0">
  <metadata
     id="metadata1381">
    <rdf:RDF>
      <cc:Work
         rdf:about="">
        <dc:format>image/svg+xml</dc:format>
        <dc:type
           rdf:resource="http://purl.org/dc/dcmitype/StillImage" />
        <dc:title></dc:title>
      </cc:Work>
    </rdf:RDF>
  </metadata>
  <defs
     id="defs1379" />
  <sodipodi:namedview
     inkscape:window-height="1008"
     inkscape:window-width="958"
     inkscape:pageshadow="2"
     inkscape:pageopacity="0.0"
     borderopacity="1.0"
     bordercolor="#666666"
     pagecolor="#ffffff"
     id="base"
     showguides="true"
     inkscape:guide-bbox="true"
     inkscape:zoom="0.5330295"
     inkscape:cx="-63.4658"
     inkscape:cy="343.71782"
     inkscape:window-x="953"
     inkscape:window-y="0"
     inkscape:current-layer="svg1376"
     showgrid="false"
     units="px"
     inkscape:window-maximized="0" />
  <path
     inkscape:connector-curvature="0"
     style="opacity:1;fill:#000000;fill-opacity:1;fill-rule:evenodd;stroke:none;stroke-width:1px;stroke-linecap:butt;stroke-linejoin:miter;stroke-opacity:1"
     d="m 260.0724,24.919047 c -6.10089,0.169324 -13.41846,3.018412 -21.99687,9.106331 -41.69826,-17.912628 -49.26403,28.008286 -31.5525,78.207342 -19.29478,18.57713 -29.51352,49.30652 -29.51352,79.71066 0,47.06541 -8.55716,65.73669 -19.05936,73.12713 -10.5022,7.39044 -16.73976,21.39623 -7.0155,31.12052 9.62066,9.62066 19.95227,6.2239 35.06025,-7.34383 -0.20531,7.61638 -0.43199,16.09687 -0.43199,17.83252 0,11.66912 0.77632,21.00693 -15.17146,31.89808 -15.94779,10.89119 -31.50227,7.38576 -46.67212,10.10856 -15.16985,2.72279 -16.73653,22.56314 -14.01374,31.1205 2.7228,8.55735 -13.613769,35.01256 -19.05936,44.73681 -5.445591,9.72426 1.560384,16.32921 8.950819,16.3292 4.552781,0 6.611051,4.28982 3.110321,13.23614 -3.500734,8.94633 1.56018,16.32773 28.01018,19.43952 25.53422,3.00402 57.5649,2.71937 99.18471,-11.28356 33.45149,11.28014 112.41044,15.9523 134.97076,8.95082 -25.67203,-25.67204 -92.1757,-55.6215 -152.85508,-58.73326 0,0 18.65905,-21.77998 24.88258,-23.72485 6.22352,-1.94485 45.50626,13.60692 81.6805,33.8334 36.17429,20.22646 59.90614,45.52214 64.57378,47.46698 4.66765,1.94485 13.2293,2.32499 28.01016,0.38014 10e-4,0.001 0.0158,0.0155 0.0173,0.0173 0.001,7e-5 0.0156,5e-5 0.0173,0 10e-4,-10e-5 0.0138,-4e-5 0.0173,0 10e-4,9e-5 0.0155,-10e-5 0.0173,0 0.005,-0.005 0.0152,-0.0153 0.0173,-0.0173 0.62908,-0.84423 -5.84873,-23.37449 -35.87238,-56.40051 -31.11767,-34.22939 -34.23711,-31.50622 -39.29375,-38.11873 -5.05664,-6.61249 11.28879,-26.05145 18.67919,-39.27646 6.03269,-10.79532 -5.30309,-14.60297 -22.99909,-19.23217 11.57284,-15.3947 13.81747,-25.72664 11.92291,-51.23392 8.30725,-0.60336 14.19281,-1.71472 25.47008,-3.83606 18.43153,-3.4671 15.46276,-39.18978 -3.88792,-50.95746 -11.16183,-6.78786 -24.51576,-5.8387 -33.0731,-47.06954 -6.84033,-32.95807 -25.50542,-56.01797 -52.3571,-65.264954 8.30304,-40.148724 2.41969,-74.120584 -19.18032,-74.129349 -0.19426,-8.2e-5 -0.39066,-0.0059 -0.5875,0 z m -2.88567,17.98803 c 0.11283,-0.0047 0.21715,-3.3e-4 0.32828,0 13.116,0.03835 14.64491,33.68838 10.50598,57.229933 -5.55439,31.59308 -17.26597,37.34179 -18.33359,41.88569 -1.18867,5.05888 1.7529,26.70653 3.9743,35.99334 6.88048,1.65702 11.99202,7.8711 11.99202,15.25786 0,8.65398 -7.0186,15.67256 -15.67259,15.67256 -8.65394,2e-5 -15.67255,-7.01858 -15.67255,-15.67256 0,-5.72589 3.06747,-10.74187 7.65482,-13.47806 1.60394,-9.00015 0.38928,-35.51313 -3.11032,-40.76251 -1.94482,-2.91729 -14.29504,-14.87702 -22.46344,-39.6739 -8.16834,-24.796856 -11.77438,-66.706618 22.06604,-41.229055 7.87008,-10.59436 14.02879,-15.034197 18.73105,-15.223298 z m 19.23213,70.224183 c 13.91308,4.16701 25.92356,14.33527 32.50291,27.33628 12.3009,21.48559 9.195,45.89803 18.31634,68.37525 5.41163,15.0174 14.95986,20.48522 28.02747,27.61276 8.73113,4.76224 6.56706,17.75071 -4.47544,13.16703 -3.80991,-1.5815 -7.28075,-3.22463 -10.43686,-4.95924 -5.02567,-14.23975 -16.94676,-27.47817 -30.13557,-38.568 -0.56882,-2.22328 -1.06376,-4.51906 -1.5033,-6.87727 -3.26698,-19.10203 -2.39967,-42.79713 -14.25567,-59.09612 -5.23165,-7.40743 -13.02355,-12.75595 -21.66858,-15.3097 1.33205,-3.90129 2.54294,-7.80938 3.6287,-11.68099 z m -63.41602,15.17146 c 1.76351,3.87088 3.67345,7.72307 5.71957,11.54275 -2.75466,3.07136 -5.085,6.53926 -6.84271,10.38502 -12.22586,23.5801 -10.5986,50.96964 -11.19716,76.79041 -0.53779,13.93872 -4.63125,39.02905 -28.75322,58.09391 -6.05121,4.78261 -14.49368,-3.8494 -5.3221,-12.3376 10.85006,-10.04161 21.78494,-34.37565 22.03145,-48.86663 0.11212,-26.23913 -0.21064,-53.88153 11.71553,-77.8963 2.98238,-6.79632 7.34528,-12.74751 12.64864,-17.71156 z m 54.93179,100.16966 c 0.0936,-0.002 0.18269,0.002 0.27646,0 0.0941,-0.002 0.18215,0.002 0.27649,0 0.0947,-0.002 0.18158,0.001 0.27646,0 0.19121,-0.004 0.37828,0.001 0.5702,0 4.78453,-0.0387 9.77858,0.43351 14.9123,1.58972 -20.03999,8.81393 -28.10454,13.53398 -27.50907,17.10679 0.53027,3.18165 14.43731,9.62429 33.95432,12.04385 l 1.96988,29.56534 c -12.48105,2.33121 -22.72206,9.30086 -32.90031,22.42888 -0.0987,-0.0839 -0.1953,-0.15787 -0.29372,-0.24191 -30.05622,-25.65776 -38.12863,-59.50831 -35.40587,-64.9539 1.79392,-3.5878 20.00183,-16.83907 43.87286,-17.53877 z m 54.25785,30.56757 c -2.21305,11.36228 -3.29976,21.47235 -4.00886,30.25653 -3.48654,-0.59492 -6.80019,-1.0028 -9.97035,-1.22686 -0.98955,-8.66137 -1.19059,-19.55572 -1.1577,-27.92379 4.4948,-0.0376 9.12943,-0.31792 13.85822,-0.9158 0.44202,-0.0559 0.86857,-0.1212 1.27869,-0.19008 z M 199.57664,304.3297 c 0.001,0 0.0152,-5e-5 0.0173,0 0.001,-6e-5 0.0153,1.4e-4 0.0173,0 0.001,10e-4 0.0156,0.0158 0.0173,0.0173 0,0.001 1.6e-4,0.0155 0,0.0173 -0.004,-0.001 -0.0691,-0.0173 -0.0691,-0.0173 0.001,-10e-4 0.0153,-0.0154 0.0173,-0.0173 z m 0.0692,0.0692 c 1.00809,0.39628 67.23418,26.42571 69.55025,28.35577 2.33381,1.94485 25.66124,49.77182 23.32742,54.0505 -2.33383,4.27866 -16.33692,1.94485 -18.28178,0 -1.94484,-1.94487 -14.78104,-43.56036 -18.2818,-46.67213 -3.5007,-3.11175 -50.56737,-17.88327 -53.29019,-20.21709 -2.53133,-2.16973 -2.69881,-14.42945 -3.0239,-15.51705 z m 93.96631,4.821 2.17722,0.44926 c -0.81018,-0.12442 -1.63799,-0.25589 -2.471,-0.38015 l 0.29378,-0.0691 z m 7.03276,4.37173 c 0.0673,-0.002 0.14005,0.002 0.20735,0 0.0679,-0.002 0.13951,0.002 0.20736,0 0.0685,-0.002 0.1389,10e-4 0.20735,0 0.0691,-0.001 0.13834,10e-4 0.20736,0 0.14033,-0.002 0.27425,10e-4 0.41471,0 4.68528,-0.0514 9.46737,0.64389 14.08288,1.74524 -1.08102,6.80952 -2.96093,11.3667 -7.10195,13.51261 -9.35568,4.84828 -20.33105,1.82095 -31.17233,-4.52724 6.24425,-7.44859 14.40441,-10.39169 22.94727,-10.73061 z m 22.22152,16.81301 c 8.5574,1.94486 14.77407,8.57068 14.77407,8.57068 0,10e-6 -21.39211,31.11295 -21.39211,47.4497 -9.33528,1.16692 -17.10606,0.76875 -18.66194,1.15773 5.44558,-31.11762 18.27852,-48.62076 25.27998,-57.17811 z m -179.48287,35.64777 c 0.001,-0.002 0.0158,10e-4 0.0173,0 0.001,9e-5 0.0157,-4e-5 0.0173,0 0.006,4e-5 0.0286,-1.6e-4 0.0346,0 10e-4,-9e-5 0.0159,-1e-5 0.0173,0 0.001,9e-5 0.0136,2e-5 0.0173,0 0.001,-9e-5 0.0159,-1e-5 0.0173,0 0.001,4e-5 0.0158,4e-5 0.0173,0 0.002,-9e-5 0.0152,-1e-5 0.0173,0 0.006,2.8e-4 0.0278,1.3e-4 0.0346,0 0.004,4e-5 0.0155,4e-5 0.0173,0 0.0146,2e-5 0.0373,-1.6e-4 0.0518,0 0.004,-5e-5 0.014,1.5e-4 0.0173,0 0.0346,-0.001 0.0692,10e-4 0.10365,0 0.13794,-0.004 0.27481,10e-4 0.41471,0 11.65808,-0.0933 26.82532,1.27189 36.32166,3.64599 11.75271,2.93817 6.78493,9.16728 5.06291,15.55161 -2.06957,7.67291 2.32212,31.90817 6.6008,47.46698 -20.61543,7.7794 -49.77649,10.88665 -81.2831,-8.95082 7.00147,-14.3919 19.44942,-34.62466 16.72663,-42.40407 -2.72279,-7.7794 -2.72603,-13.60711 6.99823,-14.77402 2.46302,-0.29557 5.45061,-0.4716 8.74346,-0.5184 0.004,6e-5 0.0152,1.9e-4 0.0173,0 0.001,8e-5 0.0157,-1e-5 0.0173,0 10e-4,-0.001 -0.001,-0.0153 0,-0.0173 z m 186.18735,30.10101 c 0.02,-0.002 0.0319,0.002 0.0519,0 0.002,-10e-5 0.0152,-3e-5 0.0173,0 0.006,3.6e-4 0.0278,2.3e-4 0.0346,0 0.0165,-5.1e-4 0.0526,4.3e-4 0.0691,0 0.0166,-4.7e-4 0.0526,4.1e-4 0.0692,0 0.0166,-4.5e-4 0.0525,3.7e-4 0.0691,0 0.0154,-10e-4 0.0368,-4.1e-4 0.0519,0 0.02,5.5e-4 0.0485,0.001 0.0692,0 0.0415,-0.002 0.0792,0.002 0.12093,0 0.1723,-0.008 0.34394,0 0.51839,0 5.58255,1e-5 10.10858,4.52604 10.10858,10.10854 0,5.5825 -4.52603,10.10855 -10.10858,10.10855 -5.58249,-1e-5 -10.10852,-4.52605 -10.10852,-10.10855 0,-5.2207 3.95805,-9.57138 9.03719,-10.10854 z m 33.55692,28.39033 c 0.0202,-10e-4 0.0489,0.001 0.0691,0 0.0166,-4.8e-4 0.0526,4e-4 0.0692,0 0.0166,-4.4e-4 0.0525,3.8e-4 0.0691,0 0.0154,-10e-4 0.0369,-4.1e-4 0.0519,0 0.02,5.6e-4 0.0485,0.001 0.0692,0 0.0415,-0.002 0.0792,0.002 0.12093,0 0.0421,-0.002 0.0788,0.001 0.12099,0 0.12961,-0.005 0.26657,0 0.3974,0 5.58255,-10e-6 10.10858,4.52604 10.10858,10.10854 0,5.58249 -4.52603,10.12584 -10.10858,10.12584 -5.58249,1e-5 -10.10852,-4.54333 -10.10852,-10.12584 0,-5.26273 4.00294,-9.62894 9.14086,-10.10854 z"
     id="path2192" />
</svg>
