<?xml version="1.0" encoding="UTF-8" standalone="no"?>
<!-- Created with Inkscape (http://www.inkscape.org/) -->

<svg
   xmlns:dc="http://purl.org/dc/elements/1.1/"
   xmlns:cc="http://creativecommons.org/ns#"
   xmlns:rdf="http://www.w3.org/1999/02/22-rdf-syntax-ns#"
   xmlns:svg="http://www.w3.org/2000/svg"
   xmlns="http://www.w3.org/2000/svg"
   xmlns:sodipodi="http://sodipodi.sourceforge.net/DTD/sodipodi-0.dtd"
   xmlns:inkscape="http://www.inkscape.org/namespaces/inkscape"
   id="svg1376"
   sodipodi:version="0.32"
   inkscape:version="0.91 r13725"
   width="500"
   height="500"
   sodipodi:docname="notVisible.svg"
   version="1.0">
  <metadata
     id="metadata1381">
    <rdf:RDF>
      <cc:Work
         rdf:about="">
        <dc:format>image/svg+xml</dc:format>
        <dc:type
           rdf:resource="http://purl.org/dc/dcmitype/StillImage" />
        <dc:title />
      </cc:Work>
    </rdf:RDF>
  </metadata>
  <defs
     id="defs1379" />
  <sodipodi:namedview
     inkscape:window-height="1017"
     inkscape:window-width="1920"
     inkscape:pageshadow="2"
     inkscape:pageopacity="0.0"
     borderopacity="1.0"
     bordercolor="#666666"
     pagecolor="#ffffff"
     id="base"
     showguides="true"
     inkscape:guide-bbox="true"
     inkscape:zoom="1.0995049"
     inkscape:cx="382.27194"
     inkscape:cy="181.41149"
     inkscape:window-x="-8"
     inkscape:window-y="-8"
     inkscape:current-layer="svg1376"
     showgrid="false"
     units="px"
     inkscape:window-maximized="1" />
  <path
     style="opacity:1;fill:#000000;fill-opacity:1;fill-rule:nonzero;stroke:#000000;stroke-width:0.81487483;stroke-opacity:1"
     d="m 249.99786,33.921464 c -63.7355,9.7e-4 -100.5789,29.82976 -138.1933,39.83398 50.3584,64.287456 18.3763,277.160926 -4.9004,360.087886 78.3393,41.42669 214.8379,44.50707 286.1875,-0.002 -27.2215,-84.43256 -55.2587,-295.80043 -4.9004,-360.087886 -37.6144,-10.00421 -74.4579,-39.833 -138.1934,-39.83203 z m 1.834,60.632809 c 13.1937,0 24.6274,1.70049 34.3028,5.10156 9.9685,3.139457 18.1786,7.586127 24.6289,13.341797 6.7434,5.49405 11.728,12.16503 14.9531,20.01367 3.5183,7.84864 5.2773,16.35302 5.2773,25.50977 0,11.77296 -2.4922,22.10683 -7.4765,31.00195 -4.6911,8.6335 -10.7015,16.48115 -18.0313,23.54492 -7.0366,7.06378 -14.806,13.73476 -23.3086,20.01367 -8.5025,6.01729 -16.4201,12.42832 -23.75,19.23047 -7.3298,6.80216 -13.4864,14.25693 -18.4707,22.36719 -4.691,8.11026 -7.0371,17.66034 -7.0371,28.64844 l -8.7949,0 c -2.0523,-7.58702 -3.0781,-15.04375 -3.0781,-22.36914 0,-9.41837 1.6127,-17.65888 4.8379,-24.72266 3.5183,-7.3254 7.7696,-13.99638 12.7539,-20.01367 4.9843,-6.01729 10.4076,-11.64258 16.2715,-16.875 5.8638,-5.49405 11.2872,-10.98838 16.2714,-16.48242 4.9843,-5.75567 9.0894,-11.77187 12.3145,-18.05078 3.5183,-6.54054 5.2773,-13.99726 5.2773,-22.36914 0,-5.75567 -1.0257,-11.38096 -3.0781,-16.875 -1.7591,-5.75567 -4.6922,-10.85713 -8.7969,-15.30469 -3.8115,-4.70919 -8.7941,-8.37207 -14.9511,-10.98828 -6.1571,-2.87784 -13.6339,-4.31641 -22.4297,-4.31641 -9.3822,0 -17.0053,0.65283 -22.8692,1.96094 -5.8638,1.3081 -9.9689,3.01054 -12.3144,5.10351 l -10.1152,48.26758 -10.9942,0 c -2.3455,-7.06377 -4.9841,-16.09003 -7.916,-27.07812 -2.9319,-11.24972 -4.9854,-21.97451 -6.1582,-32.17774 11.1413,-6.01729 23.0158,-10.204 35.623,-12.558587 12.9005,-2.61621 28.5875,-3.92383 47.0586,-3.92383 z m -20.6699,231.142577 c 9.089,0 16.4176,2.35331 21.9883,7.0625 5.5707,4.70918 8.3555,10.98925 8.3555,18.83789 0,7.58702 -2.7848,13.73417 -8.3555,18.44336 -5.5707,4.70918 -12.8993,7.06445 -21.9883,7.06445 -8.7958,0 -15.9801,-2.35527 -21.5508,-7.06445 -5.5706,-4.70919 -8.3554,-10.85634 -8.3554,-18.44336 0,-7.84864 2.7848,-14.12871 8.3554,-18.83789 5.5707,-4.70919 12.755,-7.0625 21.5508,-7.0625 z"
     id="rect4160-8-6"
     inkscape:connector-curvature="0" />
</svg>
